<?xml version="1.0" encoding="utf-8"?>
<!-- Generator: Adobe Illustrator 19.0.0, SVG Export Plug-In . SVG Version: 6.00 Build 0)  -->
<svg version="1.1" id="Calque_1" xmlns="http://www.w3.org/2000/svg" xmlns:xlink="http://www.w3.org/1999/xlink" x="0px" y="0px"
	 viewBox="0 0 72.2 51" style="enable-background:new 0 0 72.2 51;" xml:space="preserve">
<style type="text/css">
	.st0{fill:#FFFFFF;}
</style>
<g id="XMLID_41_">
	<g id="XMLID_80_">
		<g id="XMLID_102_">
			<path id="XMLID_104_" class="st0" d="M35.9,18.6c4.6,0,8.4-3.8,8.4-8.4c0-4.6-3.8-8.4-8.4-8.4c-4.6,0-8.4,3.8-8.4,8.4
				C27.5,14.8,31.3,18.6,35.9,18.6L35.9,18.6z M35.9,8.3c1,0,1.9,0.8,1.9,1.9c0,1-0.8,1.9-1.9,1.9c-1,0-1.9-0.8-1.9-1.9
				C34,9.2,34.9,8.3,35.9,8.3L35.9,8.3z"/>
			<path id="XMLID_103_" class="st0" d="M45.4,29.5c0-0.6-0.2-3.8-4.7-5.2c-4.3-1.4-11.3-3.5-11.3-3.5s-1.2-0.3-1.3-1.2
				c-0.2-1,1.1-1.7,1.4-1.8c0,0,0.1-0.1,0.1-0.1l-0.1-0.1c0,0-0.2,0.1-0.2,0.1c-0.4,0.2-3.1,1.6-2.8,5.2c0,0.6,0.2,3.8,4.7,5.2
				c4.3,1.4,11.3,3.5,11.3,3.5s1.1,0.4,1.4,1.2c0.3,1.2-1.3,2.1-1.7,2.2c0,0-0.3,0.2-0.3,0.2l0.1,0.1c0,0,0.3-0.1,0.3-0.2
				C42.8,34.9,45.7,33.4,45.4,29.5L45.4,29.5z"/>
		</g>
		<g id="XMLID_92_">
			<path id="XMLID_100_" class="st0" d="M3.7,40.1H8v0.1c0,1.9-1.7,3.4-3.5,3.4c-1.9,0-3.6-1.5-3.6-3.5c0-2,1.7-3.5,3.6-3.5
				c1.7,0,2.9,1.1,3.2,2.1H6.2c-0.3-0.4-0.9-0.9-1.8-0.9c-1.5,0-2.3,1.3-2.3,2.3c0,1,0.8,2.3,2.4,2.3c0.8,0,1.6-0.5,2-1.2H3.7V40.1z
				"/>
			<path id="XMLID_97_" class="st0" d="M13,40.2c0-1.3,1-2.3,2.3-2.3c1.3,0,2.3,1,2.3,2.3c0,1.2-1,2.3-2.3,2.3
				C13.9,42.5,13,41.4,13,40.2z M11.7,40.2c0,1.9,1.6,3.5,3.5,3.5c1.9,0,3.5-1.5,3.5-3.5c0-2-1.6-3.5-3.5-3.5
				C13.3,36.7,11.7,38.2,11.7,40.2z"/>
			<path id="XMLID_93_" class="st0" d="M24.2,40.6h0.7c1.1,0,1.2,0.6,1.2,0.9c0,0.9-1,0.9-1.2,0.9h-0.6V40.6z M23,43.5h1.8
				c0.4,0,1.2,0,1.7-0.4c0.4-0.3,0.8-0.8,0.8-1.6c0-1.1-0.7-1.5-1.1-1.7c0.2-0.1,0.8-0.4,0.8-1.3c0-0.5-0.2-0.9-0.6-1.2
				c-0.6-0.5-1.3-0.5-2.1-0.5H23V43.5z M24.2,38h0.5c0.7,0,1,0.3,1,0.7c0,0.7-0.8,0.7-1.1,0.7h-0.4V38z"/>
		</g>
		<g id="XMLID_85_">
			<path id="XMLID_90_" class="st0" d="M32.5,36.9h3.6V38h-2.4v1.6H36v1.2h-2.3v1.6h2.4v1.2h-3.6V36.9z"/>
			<path id="XMLID_88_" class="st0" d="M41.3,36.9h1.2v5.5h2v1.2h-3.3V36.9z"/>
			<path id="XMLID_86_" class="st0" d="M49.4,36.9h1.2v6.7h-1.2V36.9z"/>
		</g>
		<path id="XMLID_83_" class="st0" d="M56.2,36.9h1.4l2.8,4.9h0v-4.9h1.2v6.7h-1.4l-2.8-4.9h0v4.9h-1.2V36.9z"/>
		<path id="XMLID_81_" class="st0" d="M66.6,41.6c0.1,1.5,1.3,2,2.2,2c1,0,2.2-0.7,2.2-2.1c0-1.5-1.2-1.9-1.7-2.1
			c-0.7-0.2-1.1-0.4-1.1-0.9c0-0.4,0.3-0.7,0.7-0.7c0.3,0,0.7,0.2,0.7,0.7h1.3c-0.1-1.4-1.2-1.9-2-1.9c-1.1,0-2,0.8-2,1.9
			c0,1.4,1.1,1.7,1.6,1.9c0.8,0.3,1.3,0.4,1.3,1.1c0,0.5-0.4,0.8-0.9,0.8c-0.4,0-0.8-0.2-0.9-0.9H66.6z"/>
	</g>
	<path id="XMLID_77_" class="st0" d="M16,47.9c0-1.1,0.9-1.9,1.9-1.9c1.1,0,1.9,0.9,1.9,1.9c0,1.1-0.9,1.9-1.9,1.9
		C16.8,49.7,16,48.9,16,47.9z M15.5,47.9c0,1.3,1.1,2.3,2.4,2.3c1.3,0,2.4-1,2.4-2.3c0-1.3-1.1-2.3-2.4-2.3
		C16.7,45.5,15.5,46.5,15.5,47.9z"/>
	<path id="XMLID_75_" class="st0" d="M1,45.6h0.4v4.1h1.8v0.4H1V45.6z"/>
	<path id="XMLID_73_" class="st0" d="M4,45.6h0.5l-0.6,1.3H3.4L4,45.6z"/>
	<path id="XMLID_70_" class="st0" d="M6.1,45.6h2.4V46h-2v1.6h1.9V48H6.6v1.6h2v0.4H6.1V45.6z M7.9,44.4l0.2,0.4l-1.2,0.6L6.7,45
		L7.9,44.4z"/>
	<path id="XMLID_68_" class="st0" d="M14.5,48.9c-0.5,0.9-1.3,1.2-2.1,1.2c-1.3,0-2.3-1-2.3-2.3c0-1.3,1.1-2.3,2.3-2.3
		c1.1,0,1.9,0.8,2,1.2H14c-0.5-0.7-1.3-0.8-1.6-0.8c-1,0-1.9,0.9-1.9,1.9c0,1,0.9,1.9,1.9,1.9c0.2,0,1,0,1.6-0.8H14.5z"/>
	<path id="XMLID_66_" class="st0" d="M21.7,45.6h0.4v4.1H24v0.4h-2.3V45.6z"/>
	<path id="XMLID_64_" class="st0" d="M25.6,45.6H28V46h-2v1.6h1.9V48H26v1.6h2v0.4h-2.4V45.6z"/>
	<g id="XMLID_58_">
		<path id="XMLID_61_" class="st0" d="M31.8,46h0.6c0.7,0,1.1,0.1,1.5,0.3c0.5,0.3,0.8,0.9,0.8,1.5c0,0.8-0.4,1.2-0.7,1.5
			c-0.5,0.4-1.1,0.4-1.5,0.4h-0.6V46z M31.3,50.1h1.3c0.5,0,1.1-0.1,1.5-0.4c0.9-0.5,1-1.4,1-1.9c0-0.5-0.2-1.4-1-1.9
			c-0.4-0.2-0.9-0.4-1.5-0.4h-1.3V50.1z"/>
		<path id="XMLID_59_" class="st0" d="M36.8,45.6h2.4V46h-2v1.6h1.9V48h-1.9v1.6h2v0.4h-2.4V45.6z"/>
	</g>
	<path id="XMLID_56_" class="st0" d="M42.5,45.6H43v4.1h1.9v0.4h-2.3V45.6z"/>
	<path id="XMLID_54_" class="st0" d="M45.6,45.6h0.5l-0.6,1.3h-0.4L45.6,45.6z"/>
	<g id="XMLID_42_">
		<path id="XMLID_52_" class="st0" d="M47.9,45.6h0.4v4.5h-0.4V45.6z"/>
		<path id="XMLID_50_" class="st0" d="M50.6,45.6h0.7l1.6,3.8l1.6-3.8h0.7v4.5h-0.4v-4h0l-1.7,4h-0.4l-1.7-4h0v4h-0.4V45.6z"/>
		<path id="XMLID_47_" class="st0" d="M59,46.1l0.9,2.1h-1.7L59,46.1z M56.8,50.1h0.5l0.7-1.5H60l0.6,1.5h0.5l-1.9-4.5h-0.5
			L56.8,50.1z"/>
		<path id="XMLID_45_" class="st0" d="M67,48c-0.1,1.3-1.3,2.1-2.4,2.1c-1.3,0-2.4-1.1-2.4-2.3c0-1.2,1-2.3,2.4-2.3
			c1.2,0,1.9,0.8,2.1,1.3h-0.5c-0.3-0.4-0.8-0.9-1.6-0.9c-1.1,0-2,0.9-2,1.9c0,1,0.8,1.9,2,1.9c1,0,1.6-0.7,1.8-1.3h-2.5V48H67z"/>
		<path id="XMLID_43_" class="st0" d="M68.4,45.6h2.4V46h-2v1.6h1.9V48h-1.9v1.7h2v0.4h-2.4V45.6z"/>
	</g>
</g>
</svg>
