<?xml version="1.0" standalone="no"?>
<!DOCTYPE svg PUBLIC "-//W3C//DTD SVG 1.1//EN" "http://www.w3.org/Graphics/SVG/1.1/DTD/svg11.dtd" >
<svg xmlns="http://www.w3.org/2000/svg">
<metadata>
Created by FontPrep 20130207 at Sat Feb 27 15:35:55 2016
 By Patrick HENG
Published by Die Gestalten Verlag 2006, Copyright by Mika Mischler, 2003. All rights reserved. 
</metadata>
<defs>
<font id="86e8189c0949e827949ecf2e444ded58" horiz-adv-x='1024' >
  <font-face 
    font-family="TSTARMonoRound-Light"
    font-weight="300"
    font-stretch="normal"
    units-per-em="2048"
    panose-1="2 0 5 6 4 0 0 2 0 4"
    ascent="1587"
    descent="-461"
    x-height="1067"
    cap-height="1448"
    bbox="-123 -473.077 1352 1966"
    underline-thickness="104"
    underline-position="-182"
    unicode-range="U+0020-25CA"
  />
<missing-glyph 
 />
    <glyph glyph-name=".notdef" 
 />
    <glyph glyph-name=".null" horiz-adv-x="0" 
 />
    <glyph glyph-name="nonmarkingreturn" 
 />
    <glyph glyph-name="space" unicode=" " 
 />
    <glyph glyph-name="exclam" unicode="!" 
d="M680 25h-133v133h133v-133zM580 451v993q0 16 11 27q26 26 52 -1q12 -12 12 -26v-993q0 -13 -11 -25q-10 -12 -26 -12t-27 10t-11 27z" />
    <glyph glyph-name="quotedbl" unicode="&#x22;" 
d="M721 1182v264q0 20 13 34q14 14 34 13q20 0 34 -13t13 -34v-264q0 -20 -13 -34q-14 -14 -34 -13q-20 0 -34 13q-13 14 -13 34zM412 1182v264q0 20 13 34t33 13q20 0 34 -13t14 -34v-264q0 -20 -13 -34t-33 -13q-20 0 -35 13q-13 14 -13 34z" />
    <glyph glyph-name="numbersign" unicode="#" 
d="M506 948l-82 -350h309l84 350h-311zM127 565q0 33 31 33h194l84 350h-182q-31 0 -31 31q0 12 9 22t22 11h197l84 356q6 29 40 21q35 -6 25 -43l-80 -334h311l84 356q1 12 15 18t26 3q31 -4 27 -43l-80 -334h164q15 0 25 -10t10 -23q0 -31 -35 -31h-180l-82 -350h166
q12 0 22 -10q11 -10 11 -24t-10 -22q-10 -9 -23 -10h-180l-101 -417q-6 -31 -45 -19q-12 2 -18 14t-2 27l92 395h-309l-99 -417q-6 -31 -45 -19q-31 4 -20 41l92 395h-178q-31 0 -31 33z" />
    <glyph glyph-name="dollar" unicode="$" 
d="M303 1149q0 -160 133 -236l135 -79v557q-119 -5 -193 -65t-75 -177zM940 344q0 197 -152 283l-153 90v-643q139 8 222 79t83 191zM635 -94q0 -35 -32 -35t-32 35v94q-162 8 -259 110t-97 250q0 14 11 24q12 10 26 11q14 0 24 -10t11 -25q0 -128 79 -202t205 -84v680
l-176 102q-76 45 -120 126t-44 171q1 137 93 221t247 92v99q0 35 31 34q14 0 24 -10t9 -24v-99q160 -8 257 -100t97 -238q0 -14 -10 -24q-11 -10 -25 -10t-24 10t-10 24q0 125 -79 191t-206 72v-594l188 -109q190 -109 191 -342q0 -152 -106 -246t-273 -100v-94z" />
    <glyph glyph-name="percent" unicode="%" 
d="M385 12l420 1448q4 12 15 20t24 3q25 -6 16 -39l-416 -1448q-8 -29 -38 -21t-21 37zM292 1333q-85 0 -129 -42t-44 -117v-209q0 -66 38 -113t122 -47t128 42t44 118l2 209q0 66 -38 112t-123 47zM1128 301v209q0 68 -37 114q-38 46 -122 46t-129 -42t-45 -118v-209
q0 -66 38 -114t123 -48q84 0 128 43t44 119zM514 965q0 -103 -61 -163t-167 -60t-166 60t-61 163v209q-1 102 61 162t166 60t166 -60t62 -162v-209zM1188 301q0 -101 -62 -161t-165 -60q-104 0 -166 59q-61 59 -62 162v209q-1 102 61 162t168 61q106 0 165 -60
q60 -60 61 -163v-209z" />
    <glyph glyph-name="ampersand" unicode="&#x26;" 
d="M831 406v18l-372 326l-103 -60q-154 -90 -153 -299q0 -242 204 -300q52 -15 111 -15q139 0 226 83t87 247zM512 6q-156 0 -268 94t-113 295q0 242 191 353l84 47l-101 86q-127 111 -127 265t111 236q111 80 261 80t258 -94t110 -246q0 -14 -10 -24q-25 -24 -50 0
q-10 10 -10 24q-2 123 -90 194t-221 70q-212 0 -269 -146q-18 -46 -18 -104q0 -107 55 -165q20 -23 66 -62l716 -614q7 -7 9 -23t-6 -24t-24 -9t-24 7l-143 123q-8 -183 -119 -273q-112 -90 -268 -90z" />
    <glyph glyph-name="quotesingle" unicode="'" 
d="M567 1182v264q-1 20 13 34t34 13q20 0 34 -13t14 -34v-264q0 -20 -14 -34t-34 -13q-20 -1 -34 13t-13 34z" />
    <glyph glyph-name="parenleft" unicode="(" 
d="M586 178q0 -98 24 -146t95 -124q27 -26 -1 -50t-51 3l-51 51q-50 58 -70 114t-20 140v1126q0 84 20 140t70 114l55 58q29 27 52 0q20 -29 -4 -54q-61 -61 -91 -116t-28 -154v-1102z" />
    <glyph glyph-name="parenright" unicode=")" 
d="M717 166q1 -84 -19 -140t-71 -114l-52 -51q-23 -27 -51 -3t0 50q70 76 94 124t25 146v1102q0 98 -29 154t-90 116q-25 25 -4 54q22 27 51 0l56 -58q51 -57 70 -113t20 -141v-1126z" />
    <glyph glyph-name="asterisk" unicode="*" 
d="M895 979l-27 -49l-233 141l8 -272h-57l6 272l-230 -141l-28 49l237 129l-237 129l28 47l230 -139l-6 272h57l-8 -272l233 139l27 -47l-238 -129z" />
    <glyph glyph-name="plus" unicode="+" 
d="M178 588q0 33 33 33h367v356q0 33 32 33t33 -33v-356h373q33 0 33 -33t-33 -33h-373v-383q0 -33 -33 -33t-32 33v383h-367q-33 0 -33 33z" />
    <glyph glyph-name="comma" unicode="," 
d="M756 166l-250 -399h-35l147 399h138z" />
    <glyph glyph-name="hyphen" unicode="-" 
d="M326 553q0 33 32 33h510q33 0 33 -33t-33 -33h-510q-32 0 -32 33z" />
    <glyph glyph-name="period" unicode="." 
d="M674 27h-121v139h121v-139z" />
    <glyph glyph-name="slash" unicode="/" 
d="M846 1569q4 14 18 20t27 2q33 -10 22 -45l-530 -1630q-8 -30 -43 -22t-25 45z" />
    <glyph glyph-name="zero" unicode="0" 
d="M324 371q0 -87 30 -149t80 -91q49 -29 93 -40t89 -11q44 0 88 11q123 31 172 130q29 62 29 150l2 729q0 174 -110 239q-182 107 -363 0q-49 -29 -80 -90t-30 -149v-729zM975 367q0 -95 -34 -163t-73 -106q-38 -40 -106 -66t-153 -26t-151 27q-113 46 -165 155
q-41 84 -41 181v737q0 110 67 220q37 60 114 98t182 38t181 -38t112 -97q64 -107 67 -223v-737z" />
    <glyph glyph-name="one" unicode="1" 
d="M963 98q36 0 36 -36t-36 -35h-699q-35 -1 -35 35t35 36h314v1278h-230q-35 0 -35 36t35 36h299v-1350h316z" />
    <glyph glyph-name="two" unicode="2" 
d="M211 1137q-1 43 21 97t64 107t121 87t179 34q170 0 278 -104t107 -271q0 -113 -72 -205t-175 -156q-104 -65 -206 -126t-174 -144t-71 -182v-176h698q13 0 25 -10t12 -27q0 -35 -37 -34h-770v243q0 143 117 260q52 53 162 123t196 123t155 135t68 170q0 150 -83 231
t-230 81q-85 0 -184 -45q-53 -25 -89 -81t-40 -137q0 -35 -37 -34q-35 -1 -35 41z" />
    <glyph glyph-name="three" unicode="3" 
d="M238 1413q0 37 34 37h689v-88l-347 -520q115 -6 196 -46t119 -98q68 -105 68 -213v-110q0 -111 -75 -230q-39 -61 -118 -101t-187 -40q-109 0 -189 39q-134 65 -180 218q-18 58 -19 114q0 37 35 37q14 0 26 -12t11 -25q0 -89 34 -153t86 -94q90 -52 186 -52t196 56
q53 30 88 93t35 150v106q0 225 -225 278q-46 11 -91 11h-67v82l348 524h-619q-34 0 -34 37z" />
    <glyph glyph-name="four" unicode="4" 
d="M909 522v561q0 37 35 37t35 -37l2 -1058q0 -35 -35 -35t-35 35v428h-665v114l327 881q10 33 43 22q12 -4 18 -17t3 -26l-332 -905h604z" />
    <glyph glyph-name="five" unicode="5" 
d="M930 1446q35 0 36 -36t-36 -36h-543l-37 -514h271q159 0 273 -105t114 -272v-100q0 -161 -116 -269t-281 -108t-279 102t-113 265q0 37 35 37q16 0 26 -10t11 -27q0 -135 89 -215t225 -80t235 82q98 82 98 221v98q0 127 -86 217t-236 90h-333v117l39 543h608z" />
    <glyph glyph-name="six" unicode="6" 
d="M612 825q-43 0 -90 -12t-99 -42t-86 -92t-34 -151v-159q0 -196 166 -262t334 21q53 28 87 90t34 151l2 166q0 222 -224 278q-47 12 -90 12zM975 1124q0 -34 -36 -34t-36 34q-4 80 -36 136t-80 82q-182 97 -364 -11q-52 -31 -86 -91t-34 -142v-353q94 154 318 154
q104 0 183 -39q128 -63 175 -215q18 -57 18 -108v-175q0 -108 -76 -220q-40 -58 -121 -97q-80 -39 -186 -39t-186 39q-131 64 -178 214q-18 56 -19 106v737q0 106 80 223q41 59 122 98t183 39q268 0 341 -230q18 -55 18 -108z" />
    <glyph glyph-name="seven" unicode="7" 
d="M229 1374q-34 0 -34 37t34 37h805v-86l-497 -1337q-10 -31 -48 -21q-31 10 -20 45l496 1325h-736z" />
    <glyph glyph-name="eight" unicode="8" 
d="M942 389v25q0 150 -93 228t-237 77q-144 0 -232 -83q-89 -83 -89 -222v-25q0 -206 169 -273q81 -32 143 -32q61 0 109 11q230 53 230 294zM928 1081v19q0 88 -34 149t-87 90q-188 103 -381 1q-53 -28 -87 -90t-34 -150v-19q0 -137 88 -213t224 -76t224 76q87 76 87 213z
M1012 383q0 -93 -39 -166t-83 -115q-102 -97 -282 -96q-110 0 -192 41q-131 66 -183 225q-18 59 -18 113v35q0 53 15 110q14 57 70 125t146 101q-116 43 -164 139t-49 184v27q0 102 76 219q39 59 120 98t187 39t186 -37t118 -96q75 -113 75 -225v-27q0 -119 -84 -224
q-51 -65 -129 -95q90 -35 146 -105t69 -125q14 -55 15 -110v-35z" />
    <glyph glyph-name="nine" unicode="9" 
d="M616 645q42 0 90 12q130 33 186 135q34 62 34 150v160q0 196 -160 260q-172 69 -340 -20q-53 -28 -87 -90t-34 -150l-2 -166q0 -86 34 -148t88 -90q54 -29 101 -41t90 -12zM290 381q36 0 36 -35q4 -80 36 -136t79 -82q89 -48 152 -48q65 0 113 14t100 45t86 91t34 143
v352q-94 -154 -318 -154q-104 0 -183 39q-79 38 -118 98q-74 113 -76 226v174q0 106 77 220q40 58 121 97t187 39t184 -36t119 -93q76 -108 76 -229v-737q0 -111 -77 -224q-41 -59 -122 -98q-82 -39 -184 -39q-266 0 -341 231q-17 54 -17 98t36 44z" />
    <glyph glyph-name="colon" unicode=":" 
d="M674 25h-119v139h119v-139zM674 582h-119v139h119v-139z" />
    <glyph glyph-name="semicolon" unicode=";" 
d="M764 162l-232 -350h-67l149 350h150zM754 582h-119v139h119v-139z" />
    <glyph glyph-name="less" unicode="&#x3c;" 
d="M895 86q27 -26 1 -52t-52 1l-525 524l519 518q26 27 52 1t-1 -52l-463 -467z" />
    <glyph glyph-name="equal" unicode="=" 
d="M254 438q-33 0 -33 34t33 34h719q14 0 24 -10q11 -10 11 -24t-10 -24t-25 -10h-719zM221 781q0 34 33 34h719q14 0 24 -10q11 -11 11 -25t-10 -23t-25 -9h-719q-33 -1 -33 33z" />
    <glyph glyph-name="greater" unicode="&#x3e;" 
d="M332 86l469 473l-463 467q-27 26 -1 52t52 -1l518 -518l-524 -524q-27 -27 -53 -1t2 52z" />
    <glyph glyph-name="question" unicode="?" 
d="M639 25h-131v133h131v-133zM231 1130v7q-1 111 97 219t277 106q179 0 285 -103t107 -272q0 -201 -186 -317q-59 -39 -86 -58q-27 -18 -61 -56q-62 -67 -62 -189v-74q0 -35 -36 -35t-36 35v68q0 219 185 327q57 34 85 54t64 56q62 63 63 198t-82 216t-231 81
q-86 0 -183 -45q-52 -25 -88 -81t-40 -137q0 -14 -10 -25q-11 -11 -25 -11t-26 10t-11 26z" />
    <glyph glyph-name="at" unicode="@" 
d="M726 834q-79 0 -135 -48t-56 -139v-332q0 -92 55 -139t135 -47q79 0 141 45t62 139l2 340q0 93 -62 137t-142 44zM928 25v135q-78 -96 -195 -94t-189 63t-73 180v346q0 119 75 181t185 63q47 1 105 -23t92 -75v135q0 84 -34 145t-87 90q-99 54 -190 55t-192 -49
q-54 -29 -88 -91t-34 -150v-823q0 -81 30 -141t77 -90q84 -54 182 -58q14 0 24 -10t11 -25q-4 -35 -37 -35q-102 6 -177 45t-112 97q-68 107 -70 215v831q0 108 77 220q40 58 121 98t186 38q105 0 185 -38t119 -98q76 -113 76 -222v-915q0 -13 -10 -23t-24 -10q-33 0 -33 33
z" />
    <glyph glyph-name="A" unicode="A" 
d="M885 522l-193 856h-155l-195 -856h543zM741 1448l334 -1407q10 -35 -24 -43q-39 -8 -45 27l-105 426h-573l-105 -426q-8 -33 -45 -27q-35 6 -24 45l329 1405h258z" />
    <glyph glyph-name="B" unicode="B" 
d="M932 387v43q0 175 -99 241q-80 52 -184 52h-352v-627h342q93 0 182 51q49 29 80 91t31 149zM907 1079v19q0 175 -104 235q-78 45 -174 45h-332v-583h344q266 -1 266 284zM1004 381q0 -110 -68 -220q-37 -61 -114 -99t-183 -37h-414v1423h404q277 0 337 -243
q13 -52 13 -105v-25q0 -167 -91 -256q-42 -41 -104 -59q219 -68 220 -328v-51z" />
    <glyph glyph-name="C" unicode="C" 
d="M958 408q37 0 37 -56q0 -34 -18 -92t-59 -116q-41 -60 -121 -99q-81 -39 -187 -39t-185 39q-128 63 -175 215q-18 57 -19 109v737q0 106 77 220q40 58 121 97t185 39t182 -36t118 -93q78 -113 79 -225q0 -14 -10 -24t-25 -9q-33 0 -32 33q0 70 -24 124t-57 83
q-91 78 -229 78q-93 0 -191 -51q-54 -28 -88 -90t-34 -150v-733q0 -89 34 -151t88 -90t100 -39t91 -11q46 0 92 11q129 31 184 131q34 63 34 151q0 37 32 37z" />
    <glyph glyph-name="D" unicode="D" 
d="M633 1378h-332v-1282h336q92 0 179 51q48 29 78 91t30 151l2 698q0 87 -31 149t-80 91q-86 51 -182 51zM997 387q0 -160 -102 -270q-37 -39 -103 -66t-151 -26h-412v1425h404q281 0 349 -251q15 -54 15 -105v-707z" />
    <glyph glyph-name="E" unicode="E" 
d="M305 745v-651h656q14 0 24 -10t10 -24t-10 -25q-10 -10 -24 -10h-730v1423h730q14 0 24 -10t10 -24t-10 -25q-10 -10 -24 -11h-656v-563h606q15 0 25 -10q10 -11 10 -25t-10 -24t-25 -11h-606z" />
    <glyph glyph-name="F" unicode="F" 
d="M231 1448h730q14 0 24 -10t10 -24t-10 -25q-10 -10 -24 -11h-658v-567h608q15 0 25 -10q10 -11 10 -25t-10 -24t-25 -11h-606v-716h-74v1423z" />
    <glyph glyph-name="G" unicode="G" 
d="M924 1104q0 88 -34 149t-87 89q-188 99 -380 0q-54 -28 -88 -90t-34 -150v-733q0 -89 34 -151t88 -90q96 -50 191 -50q143 0 228 77q84 77 84 214v331h-316q-14 0 -24 10t-11 25q1 15 11 25t24 10h387v-403q0 -108 -79 -224q-41 -59 -123 -98q-81 -39 -187 -39t-185 39
q-128 63 -175 215q-18 57 -19 109v737q0 106 77 220q40 58 121 97t186 39t185 -38t118 -97q76 -116 75 -223q0 -14 -10 -24q-11 -10 -25 -11q-14 1 -23 11t-9 24z" />
    <glyph glyph-name="H" unicode="H" 
d="M217 25v1423q0 37 35 37q14 0 26 -11t11 -26v-637h651v637q0 37 35 37q16 0 26 -11t11 -26v-1423q0 -35 -36 -35t-36 35v716h-651v-716q0 -35 -36 -35t-36 35z" />
    <glyph glyph-name="I" unicode="I" 
d="M309 1376q-35 0 -35 36t35 36h606q13 0 25 -11t12 -26q0 -35 -37 -35h-268v-1280h268q13 0 25 -11t12 -26q0 -35 -37 -34h-606q-35 -1 -35 35t35 36h269v1280h-269z" />
    <glyph glyph-name="J" unicode="J" 
d="M272 367q0 37 35 36q17 0 27 -11t10 -25q0 -160 82 -225q82 -64 185 -64t182 52q43 28 68 85q26 57 26 137v1024h-457q-35 0 -35 36t35 36h526v-1083q0 -171 -91 -265t-252 -94t-251 96t-90 265z" />
    <glyph glyph-name="K" unicode="K" 
d="M309 25q0 -35 -36 -35t-35 35v1423q0 37 34 37q14 0 26 -11t11 -26v-821l561 821q8 12 24 14t26 -6q27 -20 10 -47l-402 -590l465 -774q19 -33 -13 -52t-52 17l-441 748l-178 -256v-477z" />
    <glyph glyph-name="L" unicode="L" 
d="M958 27h-727v1421q0 37 35 37q16 0 26 -11t11 -26v-1350h655q16 0 26 -10t11 -27q0 -34 -37 -34z" />
    <glyph glyph-name="M" unicode="M" 
d="M1085 25q0 -37 -36 -37q-16 0 -27 10q-10 11 -10 27v1345h-47l-312 -881h-78l-311 881h-47v-1345q0 -37 -36 -37t-38 37v1423h166l305 -870l306 870h165v-1423z" />
    <glyph glyph-name="N" unicode="N" 
d="M909 1448q1 14 11 26t26 11q16 0 26 -11t11 -26v-1425h-174l-442 1347h-48v-1347q0 -13 -10 -25t-26 -12t-27 11q-10 11 -10 26v1425h168l448 -1360h47v1360z" />
    <glyph glyph-name="O" unicode="O" 
d="M301 1102v-733q0 -89 34 -151t88 -90q96 -50 191 -50q141 0 226 77q84 77 84 214l2 733q0 196 -160 260q-172 69 -343 -20q-54 -28 -88 -90t-34 -150zM997 367q0 -108 -79 -224q-41 -59 -123 -98q-81 -39 -187 -39t-185 39q-128 63 -175 215q-18 57 -19 109v737
q0 106 77 220q40 58 121 97t186 39t185 -39q133 -65 181 -214q18 -56 18 -105v-737z" />
    <glyph glyph-name="P" unicode="P" 
d="M926 983v104q0 87 -31 149t-80 91q-86 51 -182 51h-332v-688h336q135 0 212 77t77 216zM303 25q0 -37 -37 -37q-16 0 -26 10t-11 27v1423h404q281 0 349 -251q15 -54 15 -105v-111q0 -113 -65 -224q-35 -61 -111 -99t-180 -37h-338v-596z" />
    <glyph glyph-name="Q" unicode="Q" 
d="M584 373q0 33 32 33t31 -33v-293q276 49 277 291l2 731q0 196 -160 260q-172 69 -343 -20q-54 -28 -88 -90t-34 -150v-731q0 -246 283 -291v293zM586 -201v207q-100 10 -175 51t-112 99q-68 105 -70 213v737q0 106 77 220q40 58 121 97t186 39t185 -39q133 -65 181 -214
q18 -56 18 -105v-737q0 -101 -71 -207q-37 -56 -109 -98t-168 -54v-209q0 -12 -9 -22t-24 -10q-30 -1 -30 32z" />
    <glyph glyph-name="R" unicode="R" 
d="M924 1024v63q0 87 -31 149t-80 91q-86 51 -180 51h-332v-647h336q95 0 179 51q48 30 78 92t30 150zM303 25q0 -37 -36 -37t-38 37v1423h404q106 0 184 -38t114 -97q66 -108 66 -219v-72q0 -97 -53 -199q-29 -55 -91 -98t-148 -61l272 -625q16 -35 -19 -47t-47 18
l-282 652h-326v-637z" />
    <glyph glyph-name="S" unicode="S" 
d="M920 1128v5q0 131 -88 195t-223 65q-134 -1 -220 -61t-86 -183q0 -75 42 -141t112 -105l354 -209q203 -117 203 -348q0 -158 -115 -253t-293 -95t-284 102t-107 260q0 14 11 24q12 10 26 11q14 0 24 -10t11 -25q0 -137 89 -212q90 -74 236 -74t237 72t91 198
q0 92 -45 170t-127 125l-358 209q-84 49 -131 132t-48 173q1 145 103 230t273 85t277 -93t105 -247q0 -14 -10 -24q-11 -10 -25 -10t-24 10t-10 24z" />
    <glyph glyph-name="T" unicode="T" 
d="M580 25v1349h-371q-16 0 -27 11q-10 11 -10 25t10 26t27 12h811q16 0 26 -11t11 -25q0 -14 -10 -26t-27 -12h-369v-1349q1 -35 -35 -35t-36 35z" />
    <glyph glyph-name="U" unicode="U" 
d="M926 1448q0 37 35 37q14 0 25 -11t11 -26v-1081q0 -108 -79 -224q-41 -59 -123 -98q-81 -39 -187 -39t-185 39q-128 63 -175 215q-18 57 -19 109v1079q0 37 35 37q14 0 26 -11t11 -26v-1079q0 -89 34 -151t88 -90q96 -50 191 -50q143 0 228 77q84 77 84 214v1079z" />
    <glyph glyph-name="V" unicode="V" 
d="M283 1448l301 -1354h53l307 1354q2 16 16 24t29 5q39 -6 29 -47l-326 -1405h-153l-330 1405q-10 41 29 47q14 3 28 -5t17 -24z" />
    <glyph glyph-name="W" unicode="W" 
d="M1151 1440l-213 -1420h-145l-185 875l-182 -875h-145l-213 1418q-6 41 32 47q39 6 45 -35l191 -1348h41l186 893h92l187 -893h39l192 1352q1 18 15 28t30 5q39 -6 33 -47z" />
    <glyph glyph-name="X" unicode="X" 
d="M920 20l-310 654l-309 -654q-18 -36 -55 -18t-19 53l338 686l-332 676q-18 35 19 53t55 -18l303 -643l303 643q17 36 55 18t19 -53l-332 -676l338 -686q17 -35 -19 -53t-54 18z" />
    <glyph glyph-name="Y" unicode="Y" 
d="M578 25v512l-363 882q-14 33 21 49t51 -20l327 -821l326 821q16 34 51 20t21 -49l-363 -884v-510q1 -35 -35 -35t-36 35z" />
    <glyph glyph-name="Z" unicode="Z" 
d="M248 1376q-35 0 -35 36t35 36h694v-80l-653 -1270h688q14 0 25 -10t12 -27q0 -35 -37 -34h-758v84l649 1265h-620z" />
    <glyph glyph-name="bracketleft" unicode="[" 
d="M723 -150h-248v1727h248q12 0 21 -9t10 -22q0 -29 -31 -28h-182v-1606h182q12 0 21 -9q23 -23 0 -43q-9 -10 -21 -10z" />
    <glyph glyph-name="backslash" unicode="\" 
d="M381 1569l530 -1630q11 -35 -23 -46t-44 23l-531 1630q-10 36 24 46t44 -23z" />
    <glyph glyph-name="bracketright" unicode="]" 
d="M754 -150h-248q-12 0 -22 10t-9 21q0 11 9 21t22 10h182v1606h-182q-31 0 -31 28q0 12 9 22t22 9h248v-1727z" />
    <glyph glyph-name="asciicircum" unicode="^" 
d="M838 920l-226 423l-229 -425q-12 -25 -41 -12t-14 42l241 451h86l244 -453q14 -29 -16 -43q-31 -12 -45 17z" />
    <glyph glyph-name="underscore" unicode="_" 
d="M61 -286q0 28 27 28h1051q29 0 28 -27q0 -10 -8 -19t-20 -9h-1051q-27 -1 -27 27z" />
    <glyph glyph-name="grave" unicode="`" 
d="M721 1243h-57l-158 262h88z" />
    <glyph glyph-name="a" unicode="a" 
d="M915 369v354q0 119 -68 204q-69 85 -221 85t-230 -76q-79 -76 -79 -213v-354q0 -108 61 -199q61 -92 236 -90q139 0 221 76q80 76 80 213zM918 1067q0 15 9 25t23 10t24 -10t11 -25v-1042q0 -13 -10 -23t-25 -10q-33 0 -32 33v147q-94 -168 -304 -168q-174 0 -273 97
t-99 268v354q0 166 101 264t271 98q90 0 178 -43t126 -120v145z" />
    <glyph glyph-name="b" unicode="b" 
d="M909 369v354q0 121 -65 205q-66 84 -218 84t-230 -76q-79 -76 -79 -213v-354q0 -108 61 -199q61 -92 236 -90q139 0 217 76t78 213zM246 27v1417q0 37 33 37q16 1 26 -11t10 -26v-506q41 72 126 110t173 37q172 0 270 -96t99 -266v-354q0 -165 -99 -265t-270 -100
q-209 0 -297 146v-123q0 -13 -11 -25t-25 -12q-35 0 -35 37z" />
    <glyph glyph-name="c" unicode="c" 
d="M614 1012q-139 0 -218 -76t-79 -213v-354q0 -108 61 -199q61 -92 236 -90q133 0 210 68t85 194q-1 14 11 26t27 11q15 0 27 -11t9 -26q-8 -156 -107 -247q-100 -91 -268 -91t-266 97t-98 268v354q0 166 100 264t267 98t267 -90t105 -245q0 -14 -11 -24t-28 -11
q-35 0 -35 35q-18 262 -295 262z" />
    <glyph glyph-name="d" unicode="d" 
d="M317 723v-354q0 -137 78 -213t217 -76q177 0 237 90t60 199v354q0 137 -79 213q-78 76 -230 76t-218 -84t-65 -205zM981 1444v-1417q0 -37 -35 -37q-16 0 -26 11t-11 26v123q-88 -145 -297 -146q-170 0 -269 99t-99 266v354q0 170 98 266t270 96q88 1 173 -37t126 -110
v506q-1 14 11 25t26 12q33 0 33 -37z" />
    <glyph glyph-name="e" unicode="e" 
d="M626 1012q-152 0 -230 -76q-79 -76 -79 -213v-111h594l-2 111q0 119 -65 204q-66 85 -218 85zM983 723v-186h-666v-168q0 -108 61 -199q61 -92 236 -90q133 0 210 68t85 194q-1 14 11 26t26 11q14 0 26 -10t11 -27q-8 -158 -107 -248q-100 -90 -268 -90t-266 97t-98 268
v354q0 166 100 264t271 98t269 -96t99 -266z" />
    <glyph glyph-name="f" unicode="f" 
d="M1016 907q0 -31 -35 -33h-371v-847q0 -35 -36 -35t-37 35v847h-191q-33 0 -33 33q-1 15 9 25t24 10h191v242q0 135 66 198q67 63 214 64h117q14 0 24 -10t10 -24t-10 -24q-10 -9 -24 -10h-133q-76 0 -133 -37t-58 -133v-266h371q15 0 25 -10t10 -25z" />
    <glyph glyph-name="g" unicode="g" 
d="M909 369v354q0 119 -65 204q-66 85 -218 85t-230 -76q-79 -76 -79 -213v-354q0 -108 61 -199q61 -92 236 -90q139 0 217 76t78 213zM911 1065q0 37 35 37q16 0 26 -10t11 -27v-1180q0 -182 -82 -252t-219 -69h-61q-33 0 -33 33t33 32h77q94 -1 152 55t59 169v292
q-47 -69 -128 -105t-167 -36q-174 0 -272 97t-98 268v354q0 166 100 264t270 98q86 1 171 -35t126 -102v117z" />
    <glyph glyph-name="h" unicode="h" 
d="M909 27v696q0 121 -65 205q-66 84 -214 84t-231 -75q-84 -75 -84 -194v-716q0 -13 -10 -25t-26 -12t-27 11q-10 11 -10 26v1417q0 37 34 37q14 1 26 -11t11 -26v-510q41 74 127 113t174 38q172 0 272 -97t99 -265v-696q0 -13 -11 -25q-12 -12 -28 -12t-26 12t-11 25z" />
    <glyph glyph-name="i" unicode="i" 
d="M745 1319h-110v143h110v-143zM315 59q0 33 33 33h305v914h-305q-33 0 -33 32t33 33h379v-979h234q33 0 32 -33q0 -33 -32 -32h-613q-33 -1 -33 32z" />
    <glyph glyph-name="j" unicode="j" 
d="M791 1071v-1210q0 -177 -68 -237t-211 -60h-162q-14 0 -24 10t-10 24t10 25q10 10 24 10h203q57 0 112 41q54 41 54 127v1205h-430q-33 0 -33 32t33 33h502zM807 1319h-109v143h109v-143z" />
    <glyph glyph-name="k" unicode="k" 
d="M291 1446q0 37 36 37t38 -37v-973l475 594q8 12 24 14t27 -8q27 -23 6 -49l-303 -381l340 -594q18 -33 -13 -51t-51 14l-325 574l-180 -228v-331q0 -35 -37 -35t-37 35v1419z" />
    <glyph glyph-name="l" unicode="l" 
d="M555 1448v-1356h317q33 0 33 -33t-33 -32h-694q-33 1 -33 33t33 32h305v1290h-223q-33 0 -33 33t33 33h295z" />
    <glyph glyph-name="m" unicode="m" 
d="M160 1106q35 0 37 -37v-121q25 66 86 102t139 36t129 -49q51 -48 72 -113q63 162 256 161q227 0 227 -274v-786q0 -35 -36 -35t-36 35v778q0 156 -73 194q-35 18 -89 19q-115 0 -171 -81t-56 -206v-704q0 -17 -11 -27q-12 -10 -26 -10t-25 10t-12 27v772q0 219 -155 219
q-217 0 -217 -309v-682q1 -17 -11 -27t-26 -10t-26 10q-11 10 -11 27v1044q0 37 35 37z" />
    <glyph glyph-name="n" unicode="n" 
d="M244 1065q0 37 36 37t35 -37v-143q35 76 124 120t177 43q172 0 270 -96t97 -266v-696q0 -35 -36 -35t-36 35v696q0 119 -65 204q-66 85 -214 85t-232 -79q-85 -79 -85 -206v-700q1 -35 -35 -35t-36 35v1038z" />
    <glyph glyph-name="o" unicode="o" 
d="M909 369v354q0 121 -65 205q-66 84 -218 84t-230 -76q-79 -76 -79 -213v-354q0 -121 67 -206t218 -85t229 77t78 214zM983 369q0 -167 -100 -265q-99 -98 -271 -98t-270 96t-98 267v354q0 166 100 264t271 98t269 -96t99 -266v-354z" />
    <glyph glyph-name="p" unicode="p" 
d="M911 369v354q0 137 -78 213q-79 76 -231 76t-218 -85t-65 -204v-354q0 -137 78 -213t217 -76q177 0 237 90t60 199zM248 1065q0 37 33 37q14 0 25 -10t11 -27v-129q72 150 297 149q170 0 270 -98t99 -264v-354q0 -169 -98 -267t-283 -98t-285 148v-588q0 -14 -11 -26
t-25 -11q-33 0 -33 37v1501z" />
    <glyph glyph-name="q" unicode="q" 
d="M322 723v-354q0 -109 61 -200t235 -89q139 0 218 76q78 76 77 213v354q0 119 -65 204q-66 85 -218 85t-230 -76t-78 -213zM985 1065v-1501q0 -37 -33 -37q-14 0 -25 11t-12 26v588q-101 -148 -285 -148t-282 97t-98 268v354q0 166 99 264t269 98q225 0 297 -149v129
q-1 17 11 27t26 10q33 0 33 -37z" />
    <glyph glyph-name="r" unicode="r" 
d="M225 59q0 35 33 35h172v975q0 37 35 37q14 0 25 -10t12 -27v-117q31 63 98 99q68 35 148 34q139 -1 223 -73t88 -219q0 -15 -10 -25q-11 -10 -25 -10t-25 10q-10 10 -10 25q-10 221 -241 221q-100 0 -172 -67t-72 -183v-670h350q14 0 24 -10t9 -24q0 -14 -9 -25
q-9 -10 -24 -10h-596q-14 0 -24 10q-9 10 -9 24z" />
    <glyph glyph-name="s" unicode="s" 
d="M278 340q36 0 37 -37q2 -217 299 -217q220 0 279 101q27 45 27 113t-37 120t-105 69l-336 97q-84 23 -132 82t-48 141q0 141 98 208t261 67t263 -74q99 -74 101 -219q0 -35 -36 -35t-36 35q-2 111 -84 165t-219 56q-276 0 -276 -203q0 -51 35 -95t98 -63l336 -94
q90 -25 140 -91t50 -161q0 -297 -379 -297q-170 0 -270 76t-102 219q0 37 36 37z" />
    <glyph glyph-name="t" unicode="t" 
d="M823 997h-356v-661q0 -140 50 -202q51 -62 155 -62t159 51t62 170q0 14 10 24q11 11 25 11t25 -12t10 -25q-15 -291 -291 -291t-277 330v667h-213q-33 0 -32 33q0 14 9 24t23 11h213v379q0 37 35 37q16 1 26 -11t11 -26v-379h356q15 0 25 -10q10 -11 10 -25t-10 -24
t-25 -9z" />
    <glyph glyph-name="u" unicode="u" 
d="M244 1065q0 37 36 37t35 -37v-696q0 -108 61 -199q61 -92 236 -90q131 0 215 73t84 193v719q0 37 35 37q16 0 26 -10t11 -27v-1038q0 -35 -36 -35t-36 35v125q-49 -72 -131 -109t-168 -37q-174 0 -271 96t-97 267v696z" />
    <glyph glyph-name="v" unicode="v" 
d="M354 1065l219 -969h82l217 969q8 37 48 29t28 -47l-241 -1020h-185l-241 1022q-6 35 28 45q37 10 45 -29z" />
    <glyph glyph-name="w" unicode="w" 
d="M901 102l172 969q6 37 47 29q37 -6 29 -45l-195 -1035h-143l-195 984l-196 -984h-144l-196 1037q-4 16 6 29t27 16q37 6 45 -31l172 -969h43l190 969h105l190 -969h43z" />
    <glyph glyph-name="x" unicode="x" 
d="M614 479l-258 -471q-6 -10 -21 -14t-28 4q-31 16 -12 49l276 498l-266 485q-18 33 12 51q33 18 50 -12l247 -457l248 457q16 31 48 13t14 -52l-267 -485l277 -498q18 -33 -12 -49q-12 -8 -28 -4t-22 14z" />
    <glyph glyph-name="y" unicode="y" 
d="M305 -408q0 14 11 26t26 11h25q178 0 213 150l57 244h-119l-246 1030q-4 14 6 28q21 31 52 12q14 -9 16 -24l219 -969h88l228 969q2 13 16 23q32 22 52 -11q9 -14 5 -28l-309 -1280q-31 -125 -97 -171t-190 -46h-16q-14 0 -26 11q-11 11 -11 25z" />
    <glyph glyph-name="z" unicode="z" 
d="M225 1032q1 14 11 24t24 11h645v-82l-583 -889h647q14 0 24 -10q11 -10 11 -24t-10 -25q-10 -10 -25 -10h-723v73l592 897h-578q-14 1 -24 11t-11 24z" />
    <glyph glyph-name="braceleft" unicode="{" 
d="M721 -121h-29q-123 0 -168 49q-47 45 -47 164v1274q0 119 47 164q45 49 168 49h29q12 0 21 -9t10 -22q0 -29 -31 -28h-19q-96 0 -127 -32t-30 -147v-1232q-1 -109 29 -139t128 -29h19q12 0 27 -16t0 -31t-27 -15z" />
    <glyph glyph-name="bar" unicode="|" 
d="M580 -94v1659q0 14 9 24t23 10t24 -10t11 -24v-1659q0 -14 -10 -24q-11 -10 -25 -11q-14 1 -23 11t-9 24z" />
    <glyph glyph-name="braceright" unicode="}" 
d="M537 -121h-29q-12 0 -22 9q-9 10 -9 22t9 21t22 10h18q98 -1 128 29t30 139v1232q0 115 -31 147t-127 32h-18q-31 0 -31 28q0 12 9 22t22 9h29q123 0 168 -49q47 -45 47 -164v-1274q0 -119 -47 -164q-45 -49 -168 -49z" />
    <glyph glyph-name="asciitilde" unicode="~" 
d="M451 586q-74 0 -150 -72q-19 -18 -35 1t0 36q100 92 180 92t183 -55q98 -43 160 -43t133 71q20 20 38 2t-2 -38q-61 -56 -99 -74t-91 -18q-52 0 -162 48q-110 50 -155 50z" />
    <glyph glyph-name="nbspace" unicode="&#xa0;" 
 />
    <glyph glyph-name="exclamdown" unicode="&#xa1;" 
d="M547 1104h133v-133h-133v133zM649 678v-993q0 -15 -11 -27q-12 -12 -26 -12t-26 11t-13 28v993q-1 14 11 25q27 26 54 0q11 -11 11 -25z" />
    <glyph glyph-name="cent" unicode="&#xa2;" 
d="M733 799v39q0 51 -27 71q-28 20 -61 21h-106v-221h106q45 -1 67 27q21 28 21 63zM795 797q0 -53 -33 -101t-115 -49h-108v-219h-60v563h166q84 0 117 -48t33 -103v-43zM1044 729q0 182 -128 313q-128 132 -308 132t-308 -132t-128 -313q0 -182 128 -313t308 -131t308 131
t128 313zM1112 729q0 -211 -147 -359t-357 -148t-358 148q-147 148 -148 359q0 211 148 358t357 147t357 -146q148 -148 148 -359z" />
    <glyph glyph-name="sterling" unicode="&#xa3;" 
d="M188 772q0 33 33 33h80v278q0 160 97 259q97 100 260 100q162 0 264 -102t102 -265q0 -35 -36 -35t-36 35q0 89 -30 151t-80 91q-90 53 -189 53q-100 0 -181 -51q-103 -65 -101 -223v-291h463q32 0 32 -33t-32 -33h-463v-663h630q13 0 25 -11t12 -25t-11 -26t-26 -12
h-700v737h-80q-33 0 -33 33z" />
    <glyph glyph-name="currency" unicode="&#xa4;" 
d="M1010 408q34 0 34 -56q0 -97 -67 -209q-37 -61 -114 -99t-183 -38t-181 38q-123 62 -161 214q-14 55 -14 111v182h-181l23 65h158v222h-181l23 67h158v201q0 108 66 220q36 60 113 98t182 38q277 0 344 -253q15 -56 15 -100t-34 -44t-33 33v2q0 88 -30 149t-79 90
q-181 107 -362 0q-49 -29 -80 -90t-31 -149v-193h447l-25 -67h-422v-222h385l-22 -65h-363v-182q0 -87 31 -149t80 -91t92 -40t88 -11t89 11t93 40t79 91t30 151q0 33 33 35z" />
    <glyph glyph-name="yen" unicode="&#xa5;" 
d="M254 242q-33 0 -33 34t33 33h324v226h-324q-33 -1 -33 33t33 34h297l-336 817q-14 33 21 49t51 -20l327 -821l326 821q16 34 51 20t21 -49l-336 -817h297q14 0 24 -10q11 -10 11 -24t-10 -24q-10 -9 -25 -9h-324v-226h324q14 0 24 -10q11 -11 11 -25t-10 -23t-25 -9h-324
v-217q0 -35 -36 -35t-35 35v217h-324z" />
    <glyph glyph-name="brokenbar" unicode="&#xa6;" 
d="M582 -39v594q0 33 32 33t33 -33v-594q-1 -33 -33 -33t-32 33zM582 903v594q0 33 32 33t33 -33v-594q-1 -33 -33 -33t-32 33z" />
    <glyph glyph-name="section" unicode="&#xa7;" 
d="M915 650q0 155 -143 198q-49 14 -206 58t-177 55q-67 -51 -67 -160t118 -146q296 -86 348 -101t80 -34q47 53 47 130zM274 340q16 0 26 -10t11 -27q2 -217 299 -217q220 0 279 101q27 47 27 113t-37 117q-37 50 -97 67q-300 86 -370 108q-70 23 -116 80t-46 137
q0 119 76 190q-76 66 -76 170q0 141 98 208t261 67t262 -73t102 -216v-4q0 -35 -36 -35t-36 35q-2 111 -84 166t-219 55q-276 0 -276 -203q0 -117 118 -153q295 -86 357 -105q193 -55 192 -245q0 -121 -63 -191q63 -68 63 -170q0 -297 -379 -297q-170 0 -270 76t-102 219
q0 37 36 37z" />
    <glyph glyph-name="dieresis" unicode="&#xa8;" 
d="M449 1317h-111v147h111v-147zM889 1319h-111v145h111v-145z" />
    <glyph glyph-name="copyright" unicode="&#xa9;" 
d="M750 590q0 -52 -35 -102t-118 -50t-118 49t-35 103v276q0 54 35 102t118 48t118 -49t35 -103v-35h-62v35q0 88 -91 88t-91 -88v-272q0 -90 91 -90t91 90v53h62v-55zM1044 729q0 180 -129 311t-308 131t-307 -131t-128 -311t128 -311t307 -131t308 131t129 311zM1112 729
q0 -211 -147 -359t-357 -148t-358 148q-147 148 -148 359q0 211 148 358t357 147t357 -146q148 -148 148 -359z" />
    <glyph glyph-name="ordfeminine" unicode="&#xaa;" 
d="M807 995v115h-227q-158 0 -158 -133q0 -158 180 -158q86 0 146 45q59 45 59 131zM633 1483q96 0 165 -53t68 -168v-471q0 -29 -30 -29t-29 29v63q-66 -92 -209 -92q-102 0 -170 53t-68 151t60 147q60 48 158 48h229v96q0 168 -177 168t-179 -153q0 -29 -31 -29t-31 29
q2 106 75 158t169 53z" />
    <glyph glyph-name="guillemotleft" unicode="&#xab;" 
d="M934 268l-279 281l279 278q8 9 22 9t25 -9q23 -25 0 -47l-233 -231l233 -234q23 -25 1 -47t-48 0zM516 268l-278 281l278 278q24 23 54 -8q16 -17 -7 -39l-233 -231l233 -234q23 -25 1 -47t-48 0z" />
    <glyph glyph-name="logicalnot" unicode="&#xac;" 
 />
    <glyph glyph-name="registered" unicode="&#xae;" 
d="M719 819v31q0 50 -28 70t-60 20h-107v-211h109q44 -1 65 27t21 63zM782 819q0 -45 -28 -90t-99 -61q81 -149 119 -228h-72l-114 228h-64v-228h-61v564h168q84 0 118 -48t33 -102v-35zM1044 729q0 182 -128 313q-128 132 -308 132t-308 -132t-128 -313q0 -182 128 -313
t308 -131t308 131t128 313zM1112 729q0 -211 -146 -359t-358 -148t-358 148q-147 148 -148 359q0 211 148 358t358 147q212 0 358 -146q146 -148 146 -359z" />
    <glyph glyph-name="macron" unicode="&#xaf;" 
d="M313 1317q0 33 33 33h537q33 0 33 -33t-33 -33h-537q-33 0 -33 33z" />
    <glyph glyph-name="degree" unicode="&#xb0;" 
d="M803 1232q-1 79 -57 133t-134 54t-133 -54t-55 -133t55 -133q55 -55 134 -55t135 54t55 134zM858 1233q0 -100 -73 -173t-173 -73t-172 73t-72 172t72 172t172 73t173 -72t73 -172z" />
    <glyph glyph-name="plusminus" unicode="&#xb1;" 
d="M197 53q0 27 26 27h781q27 0 26 -27q0 -27 -26 -26h-781q-26 -1 -26 26zM195 590q0 33 32 33h351v344q0 33 32 32q33 0 33 -32v-344h356q33 0 33 -33t-33 -33h-356v-371q0 -33 -33 -32q-33 0 -32 32v371h-351q-32 0 -32 33z" />
    <glyph glyph-name="acute" unicode="&#xb4;" 
d="M721 1505l-158 -264h-57l127 264h88z" />
    <glyph glyph-name="mu" unicode="&#xb5;" 
d="M244 1065q0 37 36 37t35 -37v-696q0 -108 61 -199q61 -92 236 -90q131 0 215 73t84 193v719q0 37 35 37q16 0 26 -10t11 -27v-1038q0 -35 -36 -35t-36 35v125q-49 -72 -131 -109t-168 -37q-201 0 -297 125v-563q1 -35 -35 -35t-36 35v1497z" />
    <glyph glyph-name="mu" unicode="&#x3bc;" 
d="M244 1065q0 37 36 37t35 -37v-696q0 -108 61 -199q61 -92 236 -90q131 0 215 73t84 193v719q0 37 35 37q16 0 26 -10t11 -27v-1038q0 -35 -36 -35t-36 35v125q-49 -72 -131 -109t-168 -37q-201 0 -297 125v-563q1 -35 -35 -35t-36 35v1497z" />
    <glyph glyph-name="paragraph" unicode="&#xb6;" 
d="M930 1403h-264v-1378h-68v817q-172 0 -270 85t-99 212q0 319 349 319h419v-1431l-67 -2v1378z" />
    <glyph glyph-name="periodcentered" unicode="&#xb7;" 
d="M684 483h-141v142h141v-142z" />
    <glyph glyph-name="cedilla" unicode="&#xb8;" 
d="M707 -164l-101 -254h-84l121 254h64z" />
    <glyph glyph-name="ordmasculine" unicode="&#xba;" 
d="M803 1006v233q0 74 -41 126t-133 52q-91 0 -141 -48t-50 -130v-233q0 -180 183 -181q84 1 133 49t49 132zM870 1006q0 -113 -68 -179q-68 -65 -182 -65t-181 64t-66 180v233q-1 111 67 177t182 67q114 0 182 -66t66 -178v-233z" />
    <glyph glyph-name="guillemotright" unicode="&#xbb;" 
d="M573 549l-278 -281q-25 -23 -47 0t0 47l233 234l-233 231q-23 23 0 47q26 21 47 0zM991 549l-278 -281q-25 -23 -47 0t0 47l233 234l-233 231q-23 23 0 47q26 21 47 0z" />
    <glyph glyph-name="questiondown" unicode="&#xbf;" 
d="M594 1102h131v-133h-131v133zM997 -4v-6q0 -110 -97 -218q-96 -108 -276 -108t-286 104t-107 271q0 201 187 317q59 38 86 58q28 20 62 57q59 64 61 188v74q0 35 36 35t35 -35v-67q0 -219 -184 -328q-57 -35 -85 -54q-27 -20 -63 -56q-64 -66 -65 -199q0 -135 83 -215
t225 -80t235 71q35 27 58 76q24 49 24 101t35 51q14 -1 25 -11t11 -26z" />
    <glyph glyph-name="Agrave" unicode="&#xc0;" 
d="M885 522l-193 856h-155l-195 -856h543zM741 1448l334 -1407q10 -35 -24 -43q-39 -8 -45 27l-105 426h-573l-105 -426q-10 -35 -45 -27q-35 6 -24 45l329 1405h258zM698 1626h-59l-158 262h88z" />
    <glyph glyph-name="Aacute" unicode="&#xc1;" 
d="M885 522l-193 856h-155l-195 -856h543zM741 1448l334 -1407q10 -35 -24 -43q-39 -8 -45 27l-105 426h-573l-105 -426q-10 -35 -45 -27q-35 6 -24 45l329 1405h258zM717 1888l-158 -264h-57l127 264h88z" />
    <glyph glyph-name="Acircumflex" unicode="&#xc2;" 
d="M408 1665l180 197h53l180 -195q23 -20 0 -43t-45 2l-162 174l-163 -178q-20 -20 -43 0q-20 20 0 43zM885 522l-193 856h-155l-195 -856h543zM741 1448l334 -1407q10 -35 -24 -43q-39 -8 -45 27l-105 426h-573l-105 -426q-10 -35 -45 -27q-35 6 -24 45l329 1405h258z" />
    <glyph glyph-name="Atilde" unicode="&#xc3;" 
d="M748 1620q-60 0 -134 45q-86 47 -136 47t-105 -51q-25 -25 -45 -4q-18 23 2 39q82 78 146 78t139 -46t131 -46t116 55q20 18 39 0q18 -23 -4 -43q-89 -74 -149 -74zM885 522l-193 856h-155l-195 -856h543zM741 1448l334 -1407q10 -35 -24 -43q-39 -8 -45 27l-105 426
h-573l-105 -426q-10 -35 -45 -27q-35 6 -24 45l329 1405h258z" />
    <glyph glyph-name="Adieresis" unicode="&#xc4;" 
d="M885 522l-193 856h-155l-195 -856h543zM741 1448l334 -1407q10 -35 -24 -43q-39 -8 -45 27l-105 426h-573l-105 -426q-10 -35 -45 -27q-35 6 -24 45l329 1405h258zM446 1651h-110v145h110v-145zM887 1651h-111v145h111v-145z" />
    <glyph glyph-name="Aring" unicode="&#xc5;" 
d="M885 522l-193 856h-155l-195 -856h543zM741 1448l334 -1407q10 -35 -24 -43q-39 -8 -45 27l-105 426h-573l-105 -426q-10 -35 -45 -27q-35 6 -24 45l329 1405h258zM469 1777q0 -57 39 -97t95 -40t96 40t40 97q0 56 -40 95t-96 39t-95 -39t-39 -95zM603 1966q79 0 135 -55
t57 -134t-57 -135t-136 -57q-78 0 -133 56q-55 57 -55 135t55 134t134 56z" />
    <glyph glyph-name="AE" unicode="&#xc6;" 
d="M616 522v856h-165l-195 -856h360zM690 745v-651h436q14 0 24 -10t11 -24q0 -14 -10 -25q-10 -10 -25 -10h-510v426h-374l-105 -426q-8 -33 -45 -27q-35 6 -24 45l329 1405h729q14 0 24 -10t11 -24q0 -14 -10 -25q-10 -10 -25 -11h-436v-563h387q15 0 25 -10
q10 -11 10 -25t-10 -24t-25 -11h-387z" />
    <glyph glyph-name="Ccedilla" unicode="&#xc7;" 
d="M958 408q37 0 37 -56q0 -34 -18 -92q-47 -151 -180 -215q-67 -33 -154 -38l-100 -249h-82l118 249q-255 15 -329 253q-18 57 -19 109v737q0 106 77 220q40 58 121 97t185 39t182 -36t118 -93q78 -113 79 -225q0 -14 -10 -24t-25 -9q-33 0 -32 33q0 70 -24 124t-57 83
q-91 78 -229 78q-93 0 -191 -51q-54 -28 -88 -90t-34 -150v-733q0 -89 34 -151t88 -90t100 -39t91 -11q46 0 92 11q129 31 184 131q34 63 34 151q0 37 32 37z" />
    <glyph glyph-name="Egrave" unicode="&#xc8;" 
d="M305 745v-651h656q14 0 24 -10t10 -24t-10 -25q-10 -10 -24 -10h-730v1423h730q14 0 24 -10t10 -24t-10 -25q-10 -10 -24 -11h-658v-563h608q15 0 25 -10q10 -11 10 -25t-10 -24t-25 -11h-606zM705 1634h-60l-158 262h88z" />
    <glyph glyph-name="Eacute" unicode="&#xc9;" 
d="M305 745v-651h656q14 0 24 -10t10 -24t-10 -25q-10 -10 -24 -10h-730v1423h730q14 0 24 -10t10 -24t-10 -25q-10 -10 -24 -11h-658v-563h608q15 0 25 -10q10 -11 10 -25t-10 -24t-25 -11h-606zM700 1872l-157 -262h-60l129 262h88z" />
    <glyph glyph-name="Ecircumflex" unicode="&#xca;" 
d="M406 1665l180 197h53l180 -195q21 -20 -1 -43t-44 2l-162 174l-163 -178q-23 -20 -43 0t0 43zM305 745v-651h656q14 0 24 -10t10 -24t-10 -25q-10 -10 -24 -10h-730v1423h730q14 0 24 -10t10 -24t-10 -25q-10 -10 -24 -11h-658v-563h608q15 0 25 -10q10 -11 10 -25
t-10 -24t-25 -11h-606z" />
    <glyph glyph-name="Edieresis" unicode="&#xcb;" 
d="M305 745v-651h656q14 0 24 -10t10 -24t-10 -25q-10 -10 -24 -10h-730v1423h730q14 0 24 -10t10 -24t-10 -25q-10 -10 -24 -11h-658v-563h608q15 0 25 -10q10 -11 10 -25t-10 -24t-25 -11h-606zM438 1700h-110v147h110v-147zM879 1702h-111v145h111v-145z" />
    <glyph glyph-name="Igrave" unicode="&#xcc;" 
d="M371 1376q-35 0 -35 36t35 36h483q14 0 26 -11t11 -26q0 -35 -37 -35h-207v-1280h207q14 0 26 -11t11 -26q0 -35 -37 -34h-483q-35 -1 -35 35t35 36h207v1280h-207zM686 1626h-59l-158 262h88z" />
    <glyph glyph-name="Iacute" unicode="&#xcd;" 
d="M371 1376q-35 0 -35 36t35 36h483q14 0 26 -11t11 -26q0 -35 -37 -35h-207v-1280h207q14 0 26 -11t11 -26q0 -35 -37 -34h-483q-35 -1 -35 35t35 36h207v1280h-207zM717 1888l-158 -264h-59l129 264h88z" />
    <glyph glyph-name="Icircumflex" unicode="&#xce;" 
d="M408 1665l180 197h53l180 -195q23 -20 0 -43t-45 2l-162 174l-163 -178q-20 -20 -43 0q-20 20 0 43zM371 1376q-35 0 -35 36t35 36h483q14 0 26 -11t11 -26q0 -35 -37 -35h-207v-1280h207q14 0 26 -11t11 -26q0 -35 -37 -34h-483q-35 -1 -35 35t35 36h207v1280h-207z" />
    <glyph glyph-name="Idieresis" unicode="&#xcf;" 
d="M371 1376q-35 0 -35 36t35 36h483q14 0 26 -11t11 -26q0 -35 -37 -35h-207v-1280h207q14 0 26 -11t11 -26q0 -35 -37 -34h-483q-35 -1 -35 35t35 36h207v1280h-207zM449 1700h-111v147h111v-147zM889 1702h-111v145h111v-145z" />
    <glyph glyph-name="Eth" unicode="&#xd0;" 
d="M633 1378h-332v-569h256q33 0 33 -33t-33 -33h-256v-647h336q92 0 179 51q48 29 78 91t30 151l2 698q0 87 -31 149t-80 91q-86 51 -182 51zM14 776q0 33 33 33h182v641h404q281 0 349 -251q15 -54 15 -105v-707q0 -160 -102 -270q-37 -39 -103 -66t-151 -26h-412v718
h-182q-33 0 -33 33z" />
    <glyph glyph-name="Ntilde" unicode="&#xd1;" 
d="M770 1620q-60 0 -135 45q-86 47 -136 47t-106 -51q-25 -25 -45 -4q-18 23 2 39q82 78 146 78t140 -46t132 -46t115 55q20 18 39 0q18 -23 -4 -43q-88 -74 -148 -74zM909 1448q1 14 11 26t26 11q16 0 26 -11t11 -26v-1425h-174l-442 1347h-48v-1347q0 -13 -10 -25t-26 -12
t-27 11q-10 11 -10 26v1425h168l448 -1360h47v1360z" />
    <glyph glyph-name="Ograve" unicode="&#xd2;" 
d="M690 1626h-59l-158 262h88zM926 369v733q0 196 -160 260q-173 69 -342 -20q-53 -28 -87 -90t-34 -150v-733q0 -89 34 -151t87 -90q95 -50 190 -50q143 0 228 77q84 77 84 214zM997 367q0 -108 -79 -224q-41 -59 -122 -98q-82 -39 -188 -39t-185 39q-130 64 -174 215
q-17 57 -18 109v737q0 102 76 219q39 59 120 98t186 39t185 -39q133 -65 181 -214q18 -56 18 -105v-737z" />
    <glyph glyph-name="Oacute" unicode="&#xd3;" 
d="M705 1888l-158 -264h-60l129 264h89zM926 369v733q0 196 -160 260q-171 68 -341 -20q-54 -28 -88 -90t-34 -150v-733q0 -89 34 -151t88 -90q96 -50 191 -50q141 0 226 77q84 77 84 214zM997 367q0 -108 -79 -224q-41 -59 -122 -98q-80 -39 -186 -39t-185 39
q-128 63 -175 215q-18 57 -19 109v737q0 104 77 219q40 59 120 98t186 39t186 -39q131 -63 179 -214q18 -56 18 -105v-737z" />
    <glyph glyph-name="Ocircumflex" unicode="&#xd4;" 
d="M408 1665l180 197h53l180 -195q23 -20 0 -43t-45 2l-162 174l-163 -178q-20 -20 -43 0q-20 20 0 43zM926 369v733q0 196 -160 260q-171 68 -341 -20q-54 -28 -88 -90t-34 -150v-733q0 -89 34 -151t88 -90q96 -50 191 -50q141 0 226 77q84 77 84 214zM997 367
q0 -108 -79 -224q-41 -59 -122 -98q-80 -39 -186 -39t-185 39q-128 63 -175 215q-18 57 -19 109v737q0 106 77 220q40 58 121 97t186 39t185 -39q131 -63 179 -214q18 -56 18 -105v-737z" />
    <glyph glyph-name="Otilde" unicode="&#xd5;" 
d="M748 1620q-60 0 -134 45q-86 47 -136 47t-105 -51q-25 -25 -45 -4q-18 23 2 39q82 78 146 78t139 -46t131 -46t116 55q20 18 39 0q18 -23 -4 -43q-89 -74 -149 -74zM926 369v733q0 196 -160 260q-171 68 -341 -20q-54 -28 -88 -90t-34 -150v-733q0 -89 34 -151t88 -90
q96 -50 191 -50q141 0 226 77q84 77 84 214zM997 367q0 -108 -79 -224q-41 -59 -122 -98q-80 -39 -186 -39t-185 39q-128 63 -175 215q-18 57 -19 109v737q0 104 77 219q40 59 120 98t186 39t186 -39q131 -63 179 -214q18 -56 18 -105v-737z" />
    <glyph glyph-name="Odieresis" unicode="&#xd6;" 
d="M455 1649h-111v145h111v-145zM895 1649h-111v145h111v-145zM926 369v733q0 196 -160 260q-171 68 -341 -20q-54 -28 -88 -90t-34 -150v-733q0 -89 34 -151t88 -90q96 -50 191 -50q141 0 226 77q84 77 84 214zM997 367q0 -108 -79 -224q-41 -59 -122 -98q-80 -39 -186 -39
t-185 39q-128 63 -175 215q-18 57 -19 109v737q0 106 77 220q40 58 121 97t186 39t185 -39q131 -63 179 -214q18 -56 18 -105v-737z" />
    <glyph glyph-name="multiply" unicode="&#xd7;" 
d="M662 553l276 -279q27 -23 0 -45q-23 -25 -49 2l-275 275l-278 -277q-23 -27 -45 0q-27 23 0 45l276 279l-276 278q-27 23 0 46q23 27 45 0l278 -277l279 277q23 27 45 0q27 -23 0 -46z" />
    <glyph glyph-name="Oslash" unicode="&#xd8;" 
d="M587 78q243 0 313 165q24 54 24 126l2 733q0 137 -86 213l-391 -1200q76 -37 138 -37zM301 369q0 -135 86 -215l391 1202q-76 37 -142 37q-66 1 -113 -11q-46 -12 -100 -40t-88 -90t-34 -150v-733zM997 367q0 -108 -79 -224q-41 -59 -123 -98q-83 -39 -187 -39t-182 37
l-43 -131q-8 -31 -45 -23q-33 8 -23 45l47 148q-70 55 -101 135q-32 80 -32 152v737q0 106 77 220q40 58 121 97t185 39t187 -41l47 144q4 14 18 20t27 2q33 -10 22 -45l-51 -160q68 -55 102 -134t33 -144v-737z" />
    <glyph glyph-name="Ugrave" unicode="&#xd9;" 
d="M926 1448q0 37 35 37q14 0 25 -11t11 -26v-1081q0 -108 -79 -224q-41 -59 -123 -98q-81 -39 -187 -39t-185 39q-128 63 -175 215q-18 57 -19 109v1079q0 37 35 37q14 0 26 -11t11 -26v-1079q0 -89 34 -151t88 -90q96 -50 191 -50q143 0 228 77q84 77 84 214v1079z
M692 1626h-59l-158 262h88z" />
    <glyph glyph-name="Uacute" unicode="&#xda;" 
d="M926 1448q0 37 35 37q14 0 25 -11t11 -26v-1081q0 -108 -79 -224q-41 -59 -123 -98q-81 -39 -187 -39t-185 39q-128 63 -175 215q-18 57 -19 109v1079q0 37 35 37q14 0 26 -11t11 -26v-1079q0 -89 34 -151t88 -90q96 -50 191 -50q143 0 228 77q84 77 84 214v1079z
M717 1888l-158 -264h-59l129 264h88z" />
    <glyph glyph-name="Ucircumflex" unicode="&#xdb;" 
d="M408 1665l180 197h53l180 -195q23 -20 0 -43t-45 2l-162 174l-163 -178q-20 -20 -43 0q-20 20 0 43zM926 1448q0 37 35 37q14 0 25 -11t11 -26v-1081q0 -108 -79 -224q-41 -59 -123 -98q-81 -39 -187 -39t-185 39q-128 63 -175 215q-18 57 -19 109v1079q0 37 35 37
q14 0 26 -11t11 -26v-1079q0 -89 34 -151t88 -90q96 -50 191 -50q143 0 228 77q84 77 84 214v1079z" />
    <glyph glyph-name="Udieresis" unicode="&#xdc;" 
d="M926 1448q0 37 35 37q14 0 25 -11t11 -26v-1081q0 -108 -79 -224q-41 -59 -123 -98q-81 -39 -187 -39t-185 39q-128 63 -175 215q-18 57 -19 109v1079q0 37 35 37q14 0 26 -11t11 -26v-1079q0 -89 34 -151t88 -90q96 -50 191 -50q143 0 228 77q84 77 84 214v1079z
M442 1651h-110v145h110v-145zM883 1651h-111v145h111v-145z" />
    <glyph glyph-name="Yacute" unicode="&#xdd;" 
d="M741 1882l-157 -264h-58l127 264h88zM578 25v512l-363 882q-14 33 21 49t51 -20l327 -821l326 821q16 34 51 20t21 -49l-363 -884v-510q1 -35 -35 -35t-36 35z" />
    <glyph glyph-name="Thorn" unicode="&#xde;" 
d="M926 702v105q0 88 -31 149q-70 138 -262 142h-332v-688h336q138 0 213 77q76 77 76 215zM303 37q0 -37 -37 -37q-16 0 -26 10t-11 27v1429q1 16 11 26t26 11q16 0 26 -10t11 -27v-299h330q281 0 349 -251q15 -54 15 -105v-111q0 -111 -65 -224q-35 -60 -111 -98t-180 -38
h-338v-303z" />
    <glyph glyph-name="germandbls" unicode="&#xdf;" 
d="M227 25v1079q0 106 67 220q36 60 114 98t183 38t181 -36t111 -93q65 -106 65 -217v-33q0 -86 -44 -168t-130 -96q72 -16 121 -56q106 -87 106 -263v-111q-1 -95 -33 -163t-69 -107t-103 -66t-151 -26h-88q-35 -1 -35 35t35 36h84q94 0 181 51q48 29 78 91t30 149v105
q0 176 -99 238q-80 50 -172 50h-24v74h22q104 -4 164 56q59 60 60 171v29q0 198 -146 252q-174 65 -325 -25q-49 -29 -80 -90t-31 -149v-1073q0 -35 -36 -35t-36 35z" />
    <glyph glyph-name="agrave" unicode="&#xe0;" 
d="M915 369v354q0 119 -68 204q-69 85 -221 85t-230 -76q-79 -76 -79 -213v-354q0 -108 61 -199q61 -92 236 -90q139 0 221 76q80 76 80 213zM918 1067q0 15 9 25t23 10t24 -10t11 -25v-1042q0 -13 -10 -23t-25 -10q-33 0 -32 33v147q-94 -168 -304 -168q-174 0 -273 97
t-99 268v354q0 166 101 264t271 98q90 0 178 -43t126 -120v145zM725 1243h-59l-158 262h88z" />
    <glyph glyph-name="aacute" unicode="&#xe1;" 
d="M915 369v354q0 119 -68 204q-69 85 -221 85t-230 -76q-79 -76 -79 -213v-354q0 -108 61 -199q61 -92 236 -90q139 0 221 76q80 76 80 213zM918 1067q0 15 9 25t23 10t24 -10t11 -25v-1042q0 -13 -10 -23t-25 -10q-33 0 -32 33v147q-94 -168 -304 -168q-174 0 -273 97
t-99 268v354q0 166 101 264t271 98q90 0 178 -43t126 -120v145zM743 1505l-157 -264h-60l129 264h88z" />
    <glyph glyph-name="acircumflex" unicode="&#xe2;" 
d="M408 1296l180 197h53l180 -195q23 -20 0 -43t-45 2l-162 175l-163 -179q-20 -20 -43 0q-20 20 0 43zM915 369v354q0 119 -68 204q-69 85 -221 85t-230 -76q-79 -76 -79 -213v-354q0 -108 61 -199q61 -92 236 -90q139 0 221 76q80 76 80 213zM918 1067q0 15 9 25t23 10
t24 -10t11 -25v-1042q0 -13 -10 -23t-25 -10q-33 0 -32 33v147q-94 -168 -304 -168q-174 0 -273 97t-99 268v354q0 166 101 264t271 98q90 0 178 -43t126 -120v145z" />
    <glyph glyph-name="atilde" unicode="&#xe3;" 
d="M485 1362q-50 0 -106 -51q-25 -25 -45 -4q-18 23 2 39q82 78 146 78t140 -47q76 -46 131 -46q56 0 115 55q20 18 39 0q18 -23 -4 -43q-88 -73 -148 -73t-134 45q-86 47 -136 47zM915 369v354q0 119 -68 204q-69 85 -221 85t-230 -76q-79 -76 -79 -213v-354
q0 -108 61 -199q61 -92 236 -90q139 0 221 76q80 76 80 213zM918 1067q0 15 9 25t23 10t24 -10t11 -25v-1042q0 -13 -10 -23t-25 -10q-33 0 -32 33v147q-94 -168 -304 -168q-174 0 -273 97t-99 268v354q0 166 101 264t271 98q90 0 178 -43t126 -120v145z" />
    <glyph glyph-name="adieresis" unicode="&#xe4;" 
d="M915 369v354q0 119 -68 204q-69 85 -221 85t-230 -76q-79 -76 -79 -213v-354q0 -108 61 -199q61 -92 236 -90q139 0 221 76q80 76 80 213zM918 1067q0 15 9 25t23 10t24 -10t11 -25v-1042q0 -13 -10 -23t-25 -10q-33 0 -32 33v147q-94 -168 -304 -168q-174 0 -273 97
t-99 268v354q0 166 101 264t271 98q90 0 178 -43t126 -120v145zM467 1317h-111v147h111v-147zM907 1317h-110v147h110v-147z" />
    <glyph glyph-name="aring" unicode="&#xe5;" 
d="M915 369v354q0 119 -68 204q-69 85 -221 85t-230 -76q-79 -76 -79 -213v-354q0 -108 61 -199q61 -92 236 -90q139 0 221 76q80 76 80 213zM918 1067q0 15 9 25t23 10t24 -10t11 -25v-1042q0 -13 -10 -23t-25 -10q-33 0 -32 33v147q-94 -168 -304 -168q-174 0 -273 97
t-99 268v354q0 166 101 264t271 98q90 0 178 -43t126 -120v145zM768 1408q0 56 -40 95t-96 39t-95 -40t-39 -95t40 -96t95 -41t95 41t40 97zM823 1408q0 -79 -56 -136q-56 -58 -134 -58t-134 58t-57 135q0 78 56 134t135 56q78 0 134 -55t56 -134z" />
    <glyph glyph-name="ae" unicode="&#xe6;" 
d="M1130 610v119q0 283 -242 283t-243 -283v-119h485zM569 328v213h-241q-109 -1 -171 -59q-63 -58 -63 -162t65 -174t169 -70t173 67q68 68 68 185zM1204 729v-192h-559v-168q0 -289 244 -289q225 0 241 262q0 14 12 26t25 11q35 0 35 -39q0 -129 -82 -232t-231 -104
q-205 0 -283 172q-92 -170 -274 -170q-139 0 -224 91t-85 221q-1 130 81 212q82 80 220 80h247v140q0 264 -217 264q-96 0 -159 -53t-70 -168q0 -15 -11 -25q-12 -10 -26 -10t-26 10q-11 10 -11 25q8 145 92 219t211 73q186 0 258 -159q80 160 277 159q145 0 230 -94
t85 -262z" />
    <glyph glyph-name="ccedilla" unicode="&#xe7;" 
d="M614 1012q-139 0 -218 -76t-79 -213v-354q0 -108 61 -199q61 -92 236 -90q133 0 210 68t85 194q-1 14 11 26t27 11q15 0 27 -11t9 -26q-8 -156 -107 -247t-262 -91h45l-100 -254h-84l121 254q-161 5 -257 99q-95 95 -95 266v354q0 166 100 264t267 98t267 -90t105 -245
q0 -14 -11 -24t-28 -11q-35 0 -35 35q-18 262 -295 262z" />
    <glyph glyph-name="egrave" unicode="&#xe8;" 
d="M626 1012q-152 0 -230 -76q-79 -76 -79 -213v-111h594l-2 111q0 119 -65 204q-66 85 -218 85zM983 723v-186h-666v-168q0 -108 61 -199q61 -92 236 -90q133 0 210 68t85 194q-1 14 11 26t26 11q14 0 26 -10t11 -27q-8 -158 -107 -248q-100 -90 -268 -90t-266 97t-98 268
v354q0 166 100 264t271 98t269 -96t99 -266zM698 1243h-59l-158 262h88z" />
    <glyph glyph-name="eacute" unicode="&#xe9;" 
d="M626 1012q-152 0 -230 -76q-79 -76 -79 -213v-111h594l-2 111q0 119 -65 204q-66 85 -218 85zM983 723v-186h-666v-168q0 -108 61 -199q61 -92 236 -90q133 0 210 68t85 194q-1 14 11 26t26 11q14 0 26 -10t11 -27q-8 -158 -107 -248q-100 -90 -268 -90t-266 97t-98 268
v354q0 166 100 264t271 98t269 -96t99 -266zM719 1505l-158 -264h-59l129 264h88z" />
    <glyph glyph-name="ecircumflex" unicode="&#xea;" 
d="M408 1296l180 197h53l180 -195q23 -20 0 -43t-45 2l-162 175l-163 -179q-20 -20 -43 0q-20 20 0 43zM626 1012q-152 0 -230 -76q-79 -76 -79 -213v-111h594l-2 111q0 119 -65 204q-66 85 -218 85zM983 723v-186h-666v-168q0 -108 61 -199q61 -92 236 -90q133 0 210 68
t85 194q-1 14 11 26t26 11q14 0 26 -10t11 -27q-8 -158 -107 -248q-100 -90 -268 -90t-266 97t-98 268v354q0 166 100 264t271 98t269 -96t99 -266z" />
    <glyph glyph-name="edieresis" unicode="&#xeb;" 
d="M626 1012q-152 0 -230 -76q-79 -76 -79 -213v-111h594l-2 111q0 119 -65 204q-66 85 -218 85zM983 723v-186h-666v-168q0 -108 61 -199q61 -92 236 -90q133 0 210 68t85 194q-1 14 11 26t26 11q14 0 26 -10t11 -27q-8 -158 -107 -248q-100 -90 -268 -90t-266 97t-98 268
v354q0 166 100 264t271 98t269 -96t99 -266zM444 1317h-110v147h110v-147zM885 1319h-111v145h111v-145z" />
    <glyph glyph-name="igrave" unicode="&#xec;" 
d="M240 59q0 33 32 33h306v914h-306q-32 0 -32 32t32 33h379v-979h234q33 0 33 -33t-33 -32h-613q-32 -1 -32 32zM651 1243h-59l-158 262h88z" />
    <glyph glyph-name="iacute" unicode="&#xed;" 
d="M240 59q0 33 32 33h306v914h-306q-32 0 -32 32t32 33h379v-979h234q33 0 33 -33t-33 -32h-613q-32 -1 -32 32zM723 1507l-158 -262h-59l129 262h88z" />
    <glyph glyph-name="icircumflex" unicode="&#xee;" 
d="M391 1296l180 197h54l180 -195q23 -20 0 -43t-45 2l-162 175l-164 -179q-20 -20 -43 0q-20 20 0 43zM240 59q0 33 32 33h306v914h-306q-32 0 -32 32t32 33h379v-979h234q33 0 33 -33t-33 -32h-613q-32 -1 -32 32z" />
    <glyph glyph-name="idieresis" unicode="&#xef;" 
d="M240 59q0 33 32 33h306v914h-306q-32 0 -32 32t32 33h379v-979h234q33 0 33 -33t-33 -32h-613q-32 -1 -32 32zM449 1309h-111v145h111v-145zM889 1309h-111v145h111v-145z" />
    <glyph glyph-name="eth" unicode="&#xf0;" 
d="M932 356v367q0 117 -68 209t-232 92q-163 0 -249 -79t-86 -222v-367q0 -125 73 -215t232 -90t245 81q85 81 85 224zM584 1452q0 14 10 24t24 11h9q163 0 271 -96t108 -275v-760q0 -172 -108 -274t-285 -102t-283 101t-107 275v367q0 170 108 272t285 103q90 0 178 -38
t138 -106v158q0 160 -91 232t-223 71q-14 -1 -24 11t-10 26z" />
    <glyph glyph-name="ntilde" unicode="&#xf1;" 
d="M470 1362q-50 0 -105 -51q-25 -25 -46 -4q-18 23 3 39q82 78 146 78t139 -47q75 -46 131 -46t116 55q20 18 39 0q18 -23 -4 -43q-89 -73 -149 -73t-134 45q-86 47 -136 47zM244 1065q0 37 36 37t35 -37v-143q35 76 124 120t177 43q172 0 270 -96t97 -266v-696
q0 -35 -36 -35t-36 35v696q0 119 -65 204q-66 85 -214 85t-232 -79q-85 -79 -85 -206v-700q1 -35 -35 -35t-36 35v1038z" />
    <glyph glyph-name="ograve" unicode="&#xf2;" 
d="M705 1243h-60l-158 262h88zM911 369v354q0 109 -60 199t-218 90t-237 -76t-79 -213v-354q0 -121 67 -206t218 -85t231 77q78 77 78 214zM985 369q0 -167 -100 -265q-99 -98 -271 -98t-271 97t-99 266v354q0 166 100 264t271 98t271 -97t99 -265v-354z" />
    <glyph glyph-name="oacute" unicode="&#xf3;" 
d="M721 1505l-158 -264h-59l129 264h88zM911 369v354q0 109 -60 199t-218 90t-237 -76t-79 -213v-354q0 -121 67 -206t218 -85t231 77q78 77 78 214zM983 369q0 -167 -99 -265q-100 -98 -272 -98t-270 96t-98 267v354q0 166 100 264t271 98t269 -96t99 -266v-354z" />
    <glyph glyph-name="ocircumflex" unicode="&#xf4;" 
d="M408 1296l180 197h53l180 -195q23 -20 0 -43t-45 2l-162 175l-163 -179q-20 -20 -43 0q-20 20 0 43zM909 369v354q0 109 -60 199t-218 90t-237 -77t-79 -212v-354q0 -121 67 -206t218 -85t230 77t79 214zM983 369q0 -167 -100 -265q-99 -98 -271 -98t-270 96t-98 267v354
q0 166 100 264t271 98t269 -96t99 -266v-354z" />
    <glyph glyph-name="otilde" unicode="&#xf5;" 
d="M464 1362q-50 0 -106 -51q-25 -25 -45 -4q-18 23 2 39q83 78 147 78t139 -47q75 -46 131 -46t116 55q20 18 39 0q18 -23 -4 -43q-89 -73 -149 -73t-134 45q-86 47 -136 47zM909 369v354q0 109 -60 199t-218 90t-237 -77t-79 -212v-354q0 -121 67 -206t218 -85t230 77
t79 214zM983 369q0 -167 -100 -265q-99 -98 -271 -98t-270 96t-98 267v354q0 166 100 264t271 98t269 -96t99 -266v-354z" />
    <glyph glyph-name="odieresis" unicode="&#xf6;" 
d="M446 1317h-110v147h110v-147zM887 1319h-111v145h111v-145zM911 369v354q0 109 -60 199t-218 90t-237 -76t-79 -213v-354q0 -121 67 -206t218 -85t231 77q78 77 78 214zM983 369q0 -167 -99 -265q-100 -98 -272 -98t-270 96t-98 267v354q0 166 100 264t271 98t269 -96
t99 -266v-354z" />
    <glyph glyph-name="divide" unicode="&#xf7;" 
d="M264 524q-26 0 -26 28t26 28h699q29 0 28 -29q0 -27 -28 -27h-699zM668 170h-109v129h109v-129zM668 807h-109v127h109v-127z" />
    <glyph glyph-name="oslash" unicode="&#xf8;" 
d="M911 369v354q0 133 -71 211l-383 -825q68 -31 159 -31q139 0 218 77q77 77 77 214zM319 369q0 -145 82 -222l383 828q-68 37 -188 37t-198 -76q-79 -76 -79 -213v-354zM985 369q0 -167 -100 -265t-269 -98q-111 0 -188 39l-117 -252q-14 -37 -47 -22q-31 16 -14 49
l121 260q-125 94 -125 289v354q0 166 100 264t270 98q113 0 199 -45l103 220q14 32 45 18t16 -45l-109 -232q115 -96 115 -278v-354z" />
    <glyph glyph-name="ugrave" unicode="&#xf9;" 
d="M244 1065q0 37 36 37t35 -37v-696q0 -108 61 -199q61 -92 236 -90q131 0 215 73t84 193v719q0 37 35 37q16 0 26 -10t11 -27v-1038q0 -35 -36 -35t-36 35v125q-105 -146 -289 -146t-281 96t-97 267v696zM698 1243h-59l-158 262h90z" />
    <glyph glyph-name="uacute" unicode="&#xfa;" 
d="M244 1065q0 37 36 37t35 -37v-696q0 -108 61 -199q61 -92 236 -90q131 0 215 73t84 193v719q0 37 35 37q16 0 26 -10t11 -27v-1038q0 -35 -36 -35t-36 35v125q-105 -146 -289 -146t-281 96t-97 267v696zM686 1505l-158 -264h-59l129 264h88z" />
    <glyph glyph-name="ucircumflex" unicode="&#xfb;" 
d="M408 1296l180 197h53l180 -195q23 -20 0 -43t-45 2l-162 175l-163 -179q-20 -20 -43 0q-20 20 0 43zM244 1065q0 37 36 37t35 -37v-696q0 -108 61 -199q61 -92 236 -90q131 0 215 73t84 193v719q0 37 35 37q16 0 26 -10t11 -27v-1038q0 -35 -36 -35t-36 35v125
q-105 -146 -289 -146t-281 96t-97 267v696z" />
    <glyph glyph-name="udieresis" unicode="&#xfc;" 
d="M244 1065q0 37 36 37t35 -37v-696q0 -108 61 -199q61 -92 236 -90q131 0 215 73t84 193v719q0 37 35 37q16 0 26 -10t11 -27v-1038q0 -35 -36 -35t-36 35v125q-105 -146 -289 -146t-281 96t-97 267v696zM434 1309h-110v145h110v-145zM874 1309h-110v145h110v-145z" />
    <glyph glyph-name="yacute" unicode="&#xfd;" 
d="M741 1505l-157 -264h-58l127 264h88zM305 -408q0 14 11 26t26 11h25q178 0 213 150l57 244h-119l-246 1030q-4 14 6 28q21 31 52 12q14 -9 16 -24l219 -969h88l228 969q2 13 16 23q32 22 52 -11q9 -14 5 -28l-309 -1280q-31 -125 -97 -171t-190 -46h-16q-14 0 -26 11
q-11 11 -11 25z" />
    <glyph glyph-name="thorn" unicode="&#xfe;" 
d="M909 369v354q0 121 -65 205q-66 84 -218 84t-230 -76q-79 -76 -79 -213v-354q0 -108 61 -199q61 -92 236 -90q139 0 217 76t78 213zM246 -422v1866q0 37 33 37q16 1 26 -11t10 -26v-506q41 72 126 110t173 37q172 0 270 -96t99 -266v-354q0 -165 -99 -265t-270 -100
q-209 0 -297 146v-572q0 -16 -11 -26t-25 -11q-35 0 -35 37z" />
    <glyph glyph-name="ydieresis" unicode="&#xff;" 
d="M305 -408q0 14 11 26t26 11h25q178 0 213 150l57 244h-119l-246 1030q-4 14 6 28q21 31 52 12q14 -9 16 -24l217 -969h92l226 969q2 13 16 23q32 22 52 -11q9 -14 5 -28l-309 -1280q-31 -125 -97 -171t-190 -46h-16q-14 0 -26 11q-11 11 -11 25zM451 1303h-111v145h111
v-145zM891 1303h-111v145h111v-145z" />
    <glyph glyph-name="dotlessi" unicode="&#x131;" 
d="M240 59q0 33 32 33h306v914h-306q-32 0 -32 32t32 33h379v-979h234q33 0 33 -33t-33 -32h-613q-32 -1 -32 32z" />
    <glyph glyph-name="Lslash" unicode="&#x141;" 
d="M113 617q0 28 26 28h154v803q0 37 35 37q16 0 26 -11t11 -26v-803h473q29 0 28 -29q0 -27 -28 -26h-473v-492h655q16 0 26 -10t11 -27q0 -35 -37 -34h-727v563h-154q-26 -1 -26 27z" />
    <glyph glyph-name="lslash" unicode="&#x142;" 
d="M233 613q0 28 27 28h313v741h-223q-33 0 -33 33t33 33h295v-807h313q29 0 29 -28t-29 -27h-313v-494h318q33 0 32 -33q0 -33 -32 -32h-695q-32 1 -32 33t32 32h305v494h-313q-27 -1 -27 27z" />
    <glyph glyph-name="OE" unicode="&#x152;" 
d="M188 369q0 -87 34 -147q72 -126 280 -126h76v1282h-76q-95 0 -191 -43q-55 -25 -89 -85t-34 -148v-733zM651 745v-651h426q15 0 25 -10t10 -24t-10 -25q-10 -10 -25 -10h-583q-106 -1 -184 35t-118 92q-76 111 -75 217v737q0 104 77 213q40 57 120 93t188 36h575
q15 0 25 -10t10 -24t-10 -25q-10 -10 -25 -11h-426v-563h377q14 0 24 -10q10 -11 11 -25q0 -14 -10 -24t-25 -11h-377z" />
    <glyph glyph-name="oe" unicode="&#x153;" 
d="M1141 612v117q0 283 -243 283t-243 -283v-117h486zM582 362v383q-4 117 -64 192t-186 75t-186 -80t-60 -203v-367q0 -138 65 -212t183 -74t184 74q64 74 64 212zM655 362q0 -283 244 -282q109 0 171 68t71 194q0 14 11 26t26 11q35 0 34 -37q0 -138 -86 -238t-227 -100
q-203 0 -281 172q-82 -172 -284 -172q-150 0 -236 96t-86 262v367q0 166 87 261t235 95q205 0 284 -170q78 170 281 170q145 0 230 -94t85 -262v-192h-559v-175z" />
    <glyph glyph-name="Scaron" unicode="&#x160;" 
d="M821 1817l-180 -197h-53l-180 195q-23 20 0 43t45 -3l161 -174l164 179q20 20 42 0t1 -43zM920 1128v5q0 131 -88 195t-223 65q-134 -1 -220 -61t-86 -183q0 -75 42 -141t112 -105l354 -209q203 -117 203 -348q0 -158 -115 -253t-293 -95t-284 102t-107 260q0 14 11 24
q12 10 26 11q14 0 24 -10t11 -25q0 -137 89 -212q90 -74 236 -74t237 72t91 198q0 92 -45 170t-127 125l-358 209q-84 49 -131 132t-48 173q1 145 103 230t273 85t277 -93t105 -247q0 -14 -10 -24q-11 -10 -25 -10t-24 10t-10 24z" />
    <glyph glyph-name="scaron" unicode="&#x161;" 
d="M821 1440l-180 -197h-53l-180 195q-23 20 0 43t45 -2l161 -174l164 178q20 20 42 0t1 -43zM278 340q36 0 37 -37q2 -217 299 -217q220 0 279 101q27 45 27 113t-37 120t-105 69l-336 97q-84 23 -132 82t-48 141q0 141 98 208t261 67t263 -74q99 -74 101 -219
q0 -35 -36 -35t-36 35q-2 111 -84 165t-219 56q-276 0 -276 -203q0 -51 35 -95t98 -63l336 -94q90 -25 140 -91t50 -161q0 -297 -379 -297q-170 0 -270 76t-102 219q0 37 36 37z" />
    <glyph glyph-name="Ydieresis" unicode="&#x178;" 
d="M578 25v512l-363 882q-6 13 0 29t21 20q14 6 30 0t21 -20l327 -821l326 821q4 14 20 20q36 13 52 -19q6 -15 0 -30l-363 -884v-510q1 -35 -35 -35t-36 35zM436 1651h-110v145h110v-145zM877 1651h-111v145h111v-145z" />
    <glyph glyph-name="Zcaron" unicode="&#x17d;" 
d="M821 1817l-180 -197h-53l-180 195q-23 20 0 43t45 -3l161 -174l164 179q20 20 42 0t1 -43zM248 1376q-35 0 -35 36t35 36h694v-80l-653 -1270h688q14 0 25 -10t12 -27q0 -35 -37 -34h-758v84l649 1265h-620z" />
    <glyph glyph-name="zcaron" unicode="&#x17e;" 
d="M821 1440l-180 -197h-53l-180 195q-23 20 0 43t45 -2l161 -174l164 178q20 20 42 0t1 -43zM225 1032q1 14 11 24t24 11h645v-82l-583 -889h647q14 0 24 -10q11 -10 11 -24t-10 -25q-10 -10 -25 -10h-723v73l592 897h-578q-14 1 -24 11t-11 24z" />
    <glyph glyph-name="florin" unicode="&#x192;" 
d="M899 328v221h-319q-115 0 -185 -56t-69 -163q0 -254 290 -254q102 0 193 69q90 70 90 183zM901 23v129q-47 -74 -130 -110t-161 -36q-156 0 -256 80t-100 228t90 227q90 78 231 77h326v132q0 132 -77 198q-76 66 -190 66t-195 -53t-87 -168q0 -15 -10 -25t-24 -10t-25 10
q-10 10 -10 25q8 145 107 219q98 74 242 74t242 -86q98 -85 99 -244v-733q0 -35 -36 -35t-36 35z" />
    <glyph glyph-name="circumflex" unicode="&#x2c6;" 
d="M408 1296l180 197h53l180 -195q23 -20 0 -43t-45 2l-162 175l-163 -179q-20 -20 -43 0q-20 20 0 43z" />
    <glyph glyph-name="caron" unicode="&#x2c7;" 
d="M821 1440l-180 -197h-53l-180 195q-23 20 0 43t45 -2l161 -174l164 178q20 20 42 0t1 -43z" />
    <glyph glyph-name="breve" unicode="&#x2d8;" 
d="M614 1245q-272 0 -309 219h68q39 -164 245 -164q96 0 160 42q63 42 82 122h64q-38 -219 -310 -219z" />
    <glyph glyph-name="dotaccent" unicode="&#x2d9;" 
d="M670 1325h-113v100h113v-100z" />
    <glyph glyph-name="ring" unicode="&#x2da;" 
d="M750 1407q0 55 -41 95t-97 40t-94 -40q-39 -40 -39 -95t39 -96t95 -41t97 41q40 41 40 96zM613 1597q79 0 135 -55t57 -134q0 -79 -57 -136q-58 -58 -136 -58t-133 58t-55 135q0 78 55 134t134 56z" />
    <glyph glyph-name="ogonek" unicode="&#x2db;" 
d="M715 -418h-103l-100 256h82z" />
    <glyph glyph-name="tilde" unicode="&#x2dc;" 
d="M476 1362q-50 0 -105 -51q-25 -25 -45 -4q-18 23 2 39q82 78 146 78t139 -47q75 -46 131 -46t116 55q20 18 39 0q18 -23 -4 -43q-89 -73 -149 -73t-134 45q-86 47 -136 47z" />
    <glyph glyph-name="hungarumlaut" unicode="&#x2dd;" 
d="M578 1505l-185 -262h-78l154 262h109zM911 1505l-186 -262h-76l154 262h108z" />
    <glyph glyph-name="Omega" unicode="&#x3a9;" 
d="M502 27h-359q-31 0 -30 30q0 29 30 29h213q-135 88 -135 293v760q0 92 39 160q39 69 81 109t114 67t170 27t180 -40q133 -63 183 -217q19 -57 20 -108v-760q0 -80 -34 -162t-106 -129h215q31 0 31 -30t-31 -29h-358q-35 0 -35 30q0 23 31 29q215 61 215 293v756
q0 86 -35 148t-88 93q-92 54 -193 55t-203 -56q-54 -30 -89 -92t-35 -148v-756q0 -231 213 -293q31 -6 31 -29q0 -30 -35 -30z" />
    <glyph glyph-name="Omega" unicode="&#x2126;" 
d="M502 27h-359q-31 0 -30 30q0 29 30 29h213q-135 88 -135 293v760q0 92 39 160q39 69 81 109t114 67t170 27t180 -40q133 -63 183 -217q19 -57 20 -108v-760q0 -80 -34 -162t-106 -129h215q31 0 31 -30t-31 -29h-358q-35 0 -35 30q0 23 31 29q215 61 215 293v756
q0 86 -35 148t-88 93q-92 54 -193 55t-203 -56q-54 -30 -89 -92t-35 -148v-756q0 -231 213 -293q31 -6 31 -29q0 -30 -35 -30z" />
    <glyph glyph-name="pi" unicode="&#x3c0;" 
d="M281 63v945h-148q-14 0 -24 10t-11 24q0 14 10 26t25 11h977q14 0 26 -11t11 -28q0 -33 -37 -32h-168v-738q0 -174 170 -174q14 0 24 -10t11 -24q0 -14 -10 -26q-10 -11 -25 -11q-106 0 -176 63t-70 195v725h-510v-945q0 -16 -11 -28t-25 -12t-27 12q-12 12 -12 28z" />
    <glyph glyph-name="endash" unicode="&#x2013;" 
d="M264 516q-26 0 -26 28t26 27h699q29 0 28 -28q0 -27 -28 -27h-699z" />
    <glyph glyph-name="emdash" unicode="&#x2014;" 
d="M55 516q-26 0 -26 28t26 27h1116q29 1 29 -27t-29 -28h-1116z" />
    <glyph glyph-name="quoteleft" unicode="&#x2018;" 
d="M756 1585l-148 -397h-137l250 397h35z" />
    <glyph glyph-name="quoteright" unicode="&#x2019;" 
d="M756 1585l-250 -397h-35l147 397h138z" />
    <glyph glyph-name="quotesinglbase" unicode="&#x201a;" 
d="M561 147h107v-137l-107 -108v245z" />
    <glyph glyph-name="quotedblleft" unicode="&#x201c;" 
d="M629 1663l-154 -408h-149l256 408h47zM903 1663l-153 -408h-150l256 408h47z" />
    <glyph glyph-name="quotedblright" unicode="&#x201d;" 
d="M629 1663l-256 -408h-47l153 408h150zM903 1663l-256 -408h-47l154 408h149z" />
    <glyph glyph-name="quotedblbase" unicode="&#x201e;" 
d="M629 170l-256 -408h-47l153 408h150zM903 170l-256 -408h-47l154 408h149z" />
    <glyph glyph-name="dagger" unicode="&#x2020;" 
d="M250 1063q0 33 33 33h297v469q0 14 9 24t23 10t24 -10t11 -24v-469h297q33 0 33 -33t-33 -33h-297v-1124q0 -14 -10 -24q-11 -10 -25 -11q-14 0 -23 10t-9 25v1124h-297q-33 0 -33 33z" />
    <glyph glyph-name="daggerdbl" unicode="&#x2021;" 
d="M221 1061q0 33 33 35h326v469q0 14 9 24t23 10t24 -10t11 -24v-469h326q14 0 24 -10q25 -26 0 -49q-10 -9 -24 -9h-326v-539h326q14 0 24 -10q11 -10 11 -24q0 -13 -10 -23t-25 -10h-326v-516q0 -14 -10 -24q-11 -10 -25 -11q-14 0 -23 10t-9 25v516h-326q-33 0 -33 33
q0 14 9 24t24 10h326v539h-326q-33 0 -33 33z" />
    <glyph glyph-name="bullet" unicode="&#x2022;" 
d="M807 725q0 -80 -57 -137q-58 -58 -138 -58t-136 58t-56 137q0 80 56 137q56 58 136 58t138 -58t57 -137z" />
    <glyph glyph-name="ellipsis" unicode="&#x2026;" 
d="M223 25h-119v141h119v-141zM672 25h-117v141h117v-141zM1006 166h118v-139l-118 -2v141z" />
    <glyph glyph-name="perthousand" unicode="&#x2030;" 
 />
    <glyph glyph-name="guilsinglleft" unicode="&#x2039;" 
d="M725 268l-279 281l279 278q23 23 53 -8q16 -17 -6 -39l-233 -231l233 -234q22 -25 0 -47t-47 0z" />
    <glyph glyph-name="guilsinglright" unicode="&#x203a;" 
d="M782 549l-278 -281q-26 -23 -48 0t1 47l233 234l-233 231q-23 23 0 47q26 21 47 0z" />
    <glyph glyph-name="fraction" unicode="&#x2044;" 
d="M190 -61l787 1634q12 29 44 17t15 -44l-788 -1634q-14 -32 -43 -18t-15 45z" />
    <glyph glyph-name="Euro" unicode="&#x20ac;" 
d="M1010 408q34 0 34 -56q0 -97 -67 -209q-37 -61 -114 -99t-183 -38t-181 38q-123 62 -161 214q-14 55 -14 111v182h-181l23 65h158v222h-181l23 67h158v201q0 108 66 220q36 60 113 98t182 38q277 0 344 -253q15 -56 15 -100t-34 -44t-33 33v2q0 88 -30 149t-79 90
q-181 107 -362 0q-49 -29 -80 -90t-31 -149v-193h447l-25 -67h-422v-222h385l-22 -65h-363v-182q0 -87 31 -149t80 -91t92 -40t88 -11t89 11t93 40t79 91t30 151q0 33 33 35z" />
    <glyph glyph-name="trademark" unicode="&#x2122;" 
d="M524 1393h-198v-691h-56v689h-198v55h452v-53zM1155 694h-55v697h-17l-151 -435h-53l-152 435h-16v-697h-56v752h109l141 -406l142 406h108v-752z" />
    <glyph glyph-name="partialdiff" unicode="&#x2202;" 
 />
    <glyph glyph-name="Delta" unicode="&#x2206;" 
 />
    <glyph glyph-name="product" unicode="&#x220f;" 
d="M958 27v1347h-688v-1347q0 -15 -12 -27t-26 -12t-27 12q-12 12 -12 27v1429h843v-1429q0 -15 -12 -27t-26 -12t-28 12q-12 12 -12 27z" />
    <glyph glyph-name="summation" unicode="&#x2211;" 
 />
    <glyph glyph-name="minus" unicode="&#x2212;" 
d="M227 434q0 27 27 27h721q27 0 26 -27q0 -27 -26 -26h-721q-27 -1 -27 26z" />
    <glyph glyph-name="radical" unicode="&#x221a;" 
 />
    <glyph glyph-name="infinity" unicode="&#x221e;" 
d="M239 891q-139 0 -215 -88t-75 -224q0 -137 76 -225q77 -88 211 -88t243 164l96 148l-96 151q-101 162 -240 162zM993 266q133 0 209 88t76 224t-76 225q-76 88 -212 88t-240 -162l-99 -151q20 -36 52 -83q95 -141 155 -185q61 -44 135 -44zM227 195q-152 -1 -251 107
t-99 276t99 276t251 109q182 0 301 -189l86 -137q14 23 32 55t32 50q12 19 20 32q129 188 292 188t262 -108q100 -108 100 -276t-100 -276t-253 -107q-92 0 -172 52t-129 134l-84 141l-86 -141q-115 -186 -301 -186z" />
    <glyph glyph-name="integral" unicode="&#x222b;" 
d="M942 1417q0 -31 -35 -33h-69q-92 0 -144 -35q-51 -36 -51 -135v-1142q0 -137 -65 -201q-66 -63 -213 -64h-43q-14 -1 -24 11t-11 26q0 14 10 24t25 9h45q104 0 154 39t50 154v1120q0 136 67 200t214 64h55q15 0 25 -11t10 -26z" />
    <glyph glyph-name="approxequal" unicode="&#x2248;" 
d="M768 408q-52 0 -162 49t-155 49q-74 0 -150 -72q-18 -16 -37 2q-14 18 2 35q100 92 180 92t183 -55q97 -43 159 -43t134 72q20 20 38 2t-2 -39q-61 -56 -99 -74t-91 -18zM451 795q-74 0 -150 -72q-19 -18 -35 1t0 36q100 92 180 92t183 -55q98 -43 160 -43t133 71
q20 20 38 2t-2 -39q-61 -57 -99 -74q-38 -18 -91 -18q-52 0 -162 50t-155 49z" />
    <glyph glyph-name="notequal" unicode="&#x2260;" 
d="M254 438q-33 0 -33 34t33 34h307l80 242h-387q-33 -1 -33 33t33 34h410l186 574q4 14 18 20t27 2q33 -10 23 -45l-181 -551h236q14 0 24 -10q11 -11 11 -25t-10 -23t-25 -9h-258l-78 -242h336q14 0 24 -10q11 -10 11 -24t-10 -24t-25 -10h-359l-198 -610q-8 -31 -45 -23
q-33 8 -23 45l191 588h-285z" />
    <glyph glyph-name="lessequal" unicode="&#x2264;" 
d="M227 53q0 27 27 27h721q27 0 26 -27q0 -27 -26 -26h-721q-27 -1 -27 26zM821 317q27 -27 1 -53t-52 2l-524 525l518 518q26 27 52 1t-1 -53l-463 -466z" />
    <glyph glyph-name="greaterequal" unicode="&#x2265;" 
d="M227 53q0 27 27 27h721q27 0 26 -27q0 -27 -26 -26h-721q-27 -1 -27 26zM403 315l469 473l-462 467q-27 27 -1 53t52 -1l518 -519l-524 -524q-27 -28 -53 -2t1 53z" />
    <glyph glyph-name="lozenge" unicode="&#x25ca;" 
d="M293 735l321 -682l322 682l-322 688zM666 0h-103l-348 735l348 740h103l348 -740z" />
  </font>
</defs>
</svg>
