<?xml version="1.0" encoding="utf-8"?>
<!-- Generator: Adobe Illustrator 19.0.0, SVG Export Plug-In . SVG Version: 6.00 Build 0)  -->
<svg version="1.1" id="Calque_1" xmlns="http://www.w3.org/2000/svg" xmlns:xlink="http://www.w3.org/1999/xlink" x="0px" y="0px"
	 viewBox="0 0 267.3 271.3" style="enable-background:new 0 0 267.3 271.3;" xml:space="preserve">
<style type="text/css">
	.st0{fill:none;stroke:#FFFFFF;stroke-miterlimit:10;}
	.st1{fill:#FFFFFF;}
</style>
<g id="REWARD_x5F_PICTOGRAMME">
	
		<image style="overflow:visible;opacity:0.75;" width="288" height="292" id="XMLID_1238_" xlink:href="AEA004E981117499.png"  transform="matrix(1 0 0 1 -9.3333 -9.3333)">
	</image>
	<g id="XMLID_740_">
		<g id="XMLID_1062_">
			<g id="XMLID_1065_">
				<g id="XMLID_1129_">
					<g id="XMLID_1146_">
						<path id="XMLID_1149_" class="st0" d="M125.2,94.1l6.4-25.2L114,84c-0.6,0.5-1,1.4-0.9,2.2c0.1,0.8,0.6,1.6,1.3,2L125.2,94.1z
							"/>
						<path id="XMLID_1148_" class="st0" d="M154.4,84l-17.6-15l6.4,25.2l10.8-6c0.7-0.4,1.2-1.1,1.3-2
							C155.3,85.3,155,84.5,154.4,84z"/>
						<path id="XMLID_1147_" class="st0" d="M173.2,158.7c-0.2-1-1-1.7-2.1-1.7c-4.7,0-6.6,3.7-7.1,4.9c-1.6,3.8-3.7,3.4-5,1.7
							c-1.7-2.2-0.4-9.9-3.6-13.1c-3.3-3.3-9.1-7.1-9.1-7.1c1.8-6,2.9-11.9,2.9-15.2c0-4.2-3.3-23-3.8-24.9l-8.8-34.7
							c-0.3-1.1-1.2-1.8-2.3-1.8c-1.1,0-2.1,0.8-2.3,1.8l-8.8,34.7c-0.5,1.9-3.8,20.7-3.8,24.9c0,3.3,1.1,9.3,2.9,15.2
							c0,0-5.8,3.8-9.1,7.1s-2,11-3.6,13.1c-1.3,1.7-3.4,2.2-5-1.7c-0.5-1.2-2.4-4.9-7.1-4.9c-1.1,0-1.9,0.6-2.1,1.7
							c-0.2,1.1,0.5,2.1,1.6,2.3c3.2,0.8,2.9,2.5,3.5,4.3c2.3,7.9,9.7,6.2,12,4.6c2.6-1.8,3-2.9,6.3-13.7c0,0,0.3-1,1.6-1.1
							c-1.7,2.9-4.2,20.9-9.9,23.1c-6.7,2.6-9.8,3.3-12.7,8c-0.5,0.8-0.4,2,0.4,2.6c0.9,0.7,2.1,0.6,2.8-0.3c0,0,0.5-0.6,1.3-1.4
							c2.4-2.4,10.6-1.8,15.1-6.3c3.1-2.9,8.2-16,8.3-16c0,0-3.5,22.8-3.7,24.1c-0.4,2.1-0.3,4.3-9.6,8.8c-0.9,0.5-1.3,1.6-0.9,2.6
							c0.5,1,1.6,1.5,2.7,1c7.3-3.2,11.3-4.2,13.3-12.8c0.1-0.3,5.5-23.8,7-30.6c1.6,6.8,7,30.3,7,30.6c2,8.6,6,9.6,13.3,12.8
							c1,0.5,2.2,0,2.7-1c0.4-1,0-2.1-0.9-2.6c-9.3-4.5-9.3-6.7-9.6-8.8c-0.2-1.3-3.7-24-3.7-24.1c0,0,5.2,13.1,8.3,16
							c4.5,4.5,12.7,3.8,15.1,6.3c0.7,0.7,1.3,1.3,1.3,1.4c0.7,0.9,2,1,2.8,0.3c0.8-0.6,1-1.8,0.4-2.6c-3-4.7-6-5.4-12.7-8
							c-5.7-2.2-8.2-20.2-9.9-23.1c1.3,0.2,1.6,1.1,1.6,1.1c3.3,10.8,3.6,11.9,6.3,13.7c2.3,1.6,9.7,3.3,12-4.6
							c0.5-1.8,0.3-3.5,3.5-4.3C172.6,160.8,173.4,159.8,173.2,158.7z"/>
					</g>
					<g id="XMLID_1138_">
						<polygon id="XMLID_1145_" class="st0" points="197.6,78.9 196.7,78.3 195.2,78.6 194.4,80 194.6,82 195.5,82.8 196.9,82.5 
							197.9,80.8 						"/>
						<polygon id="XMLID_1144_" class="st0" points="197,80 196.4,79.4 195.5,79.5 194.9,80.2 195.1,81.6 195.7,82 196.6,81.9 
							197.1,80.9 						"/>
						<polygon id="XMLID_1143_" class="st0" points="196.3,80 196.1,79.7 195.6,79.7 195.2,80.1 195.3,80.5 195.5,80.8 195.9,80.7 
							196.3,80.3 						"/>
						<path id="XMLID_1142_" class="st0" d="M221.2,81.5l1.2,0.9l6.1,1l-4.8-3.1l5.9-0.3l-2.8-3.4l-3.4,1c0,0-0.1,0,0-0.1l2.8-1.6
							l-2-2.1l-2.9,0.2l-0.7,0.9l-0.9,1.9"/>
						<polyline id="XMLID_1141_" class="st0" points="202.5,71.9 206.4,70.4 211.4,67.8 214.6,65.6 212.5,68.7 216.8,67.7 214,69.6 
							217.6,69.8 216.2,72.6 						"/>
						<polyline id="XMLID_1140_" class="st0" points="200.3,97.7 202.4,99.5 203.6,97.5 						"/>
						<polygon id="XMLID_1139_" class="st0" points="192.2,82.7 193.4,85.2 193.1,83.4 192.4,82.3 192.6,80.8 193.9,79.1 
							195.4,76.8 199.5,74.1 200.2,74.3 202.5,72 206.7,71 209.2,70.7 211.5,69.5 214.2,70.6 216.2,72.6 218,75.1 219.6,77 
							222,76.4 223.5,78.2 223.3,81.1 221.2,81.5 219.2,80.5 216.7,81.6 213.9,88.2 209.5,93.5 203.6,97.5 200.3,97.7 199,97.3 
							198.8,100.6 198.3,101.4 197.4,100.1 197.6,96.8 194.4,95.7 193.3,92 193.2,89.6 192.2,85.9 191.3,84.7 191.4,82.5 						"/>
					</g>
					<g id="XMLID_1130_">
						<polygon id="XMLID_1137_" class="st0" points="76,78.9 76.9,78.3 78.4,78.6 79.3,80 79.1,82 78.1,82.8 76.7,82.5 75.8,80.8 
													"/>
						<polygon id="XMLID_1136_" class="st0" points="76.6,80 77.2,79.4 78.2,79.5 78.8,80.2 78.5,81.6 77.9,82 77.1,81.9 76.5,80.9 
													"/>
						<polygon id="XMLID_1135_" class="st0" points="77.3,80 77.6,79.7 78,79.7 78.4,80.1 78.3,80.5 78.1,80.8 77.7,80.7 77.4,80.3 
													"/>
						<path id="XMLID_1134_" class="st0" d="M52.4,81.5l-1.2,0.9l-6.1,1l4.8-3.1L44,80l2.8-3.4l3.4,1c0,0,0.1,0,0-0.1L47.5,76l2-2.1
							l2.9,0.2l0.7,0.9L54,77"/>
						<polyline id="XMLID_1133_" class="st0" points="71.1,71.9 67.2,70.4 62.2,67.8 59,65.6 61.2,68.7 56.8,67.7 59.6,69.6 
							56,69.8 57.4,72.6 						"/>
						<polyline id="XMLID_1132_" class="st0" points="73.3,97.7 71.2,99.5 70.1,97.5 						"/>
						<polygon id="XMLID_1131_" class="st0" points="81.5,82.7 80.3,85.2 80.5,83.4 81.2,82.3 81,80.8 79.7,79.1 78.2,76.8 
							74.1,74.1 73.4,74.3 71.1,72 66.9,71 64.4,70.7 62.1,69.5 59.5,70.6 57.4,72.6 55.6,75.1 54,77 51.6,76.4 50.1,78.2 
							50.3,81.1 52.4,81.5 54.4,80.5 57,81.6 59.7,88.2 64.1,93.5 70.1,97.5 73.3,97.7 74.7,97.3 74.8,100.6 75.3,101.4 76.3,100.1 
							76,96.8 79.2,95.7 80.3,92 80.5,89.6 81.5,85.9 82.3,84.7 82.2,82.5 						"/>
					</g>
				</g>
				<g id="XMLID_1108_">
					<path id="XMLID_1127_" class="st1" d="M62,49.6c-0.1-0.2-0.1-0.4,0.1-0.6c0.2-0.1,0.4-0.1,0.6,0.1l4.3,5.7l5.8-4.4l-4.3-5.7
						c-0.1-0.2-0.1-0.4,0.1-0.6c0.2-0.1,0.4-0.1,0.6,0.1l9.7,12.6c0.1,0.2,0.1,0.4-0.1,0.6c-0.2,0.1-0.4,0.1-0.5-0.1L73.2,51
						l-5.8,4.4l4.9,6.4c0.1,0.2,0.1,0.4-0.1,0.6c-0.2,0.1-0.4,0.1-0.5-0.1L62,49.6z"/>
					<path id="XMLID_1125_" class="st1" d="M75.4,40.1l5.9-3.4c0.2-0.1,0.4,0,0.6,0.2c0.1,0.2,0,0.4-0.2,0.5l-2.6,1.5l7.1,12.4
						l2.6-1.5c0.2-0.1,0.4,0,0.6,0.2c0.1,0.2,0,0.4-0.2,0.5l-5.9,3.4c-0.2,0.1-0.4,0.1-0.5-0.1s-0.1-0.4,0.1-0.6l2.6-1.5l-7.1-12.4
						l-2.6,1.5c-0.2,0.1-0.4,0.1-0.5-0.1C75.1,40.4,75.2,40.2,75.4,40.1z"/>
					<path id="XMLID_1122_" class="st1" d="M98.4,46.3L94.2,48l-6-14.8l4.2-1.7c3.1-1.3,4.8,0.9,5.3,2.2l3,7.3
						C101.1,42.3,101.5,45,98.4,46.3z M96.9,34.1c-1.1-2.6-3.2-2.2-4.3-1.8l-3.4,1.4L94.6,47l3.5-1.4c1-0.4,2.8-1.7,1.7-4.2
						L96.9,34.1z"/>
					<path id="XMLID_1120_" class="st1" d="M107.2,42.4l7.1-1.8c0.2-0.1,0.4,0.1,0.5,0.3c0.1,0.2-0.1,0.4-0.3,0.5l-7.9,2l-4-15.4
						l7.9-2c0.2-0.1,0.4,0.1,0.5,0.3c0.1,0.2-0.1,0.4-0.3,0.5l-7.1,1.8l1.6,6.1l6.6-1.7c0.2-0.1,0.4,0.1,0.5,0.3
						c0.1,0.2-0.1,0.4-0.3,0.5l-6.6,1.7L107.2,42.4z"/>
					<path id="XMLID_1117_" class="st1" d="M140.2,35.3c-0.1,2.9-2.2,4.1-4.3,4.1c-2.1,0-4.3-1.1-4.3-4.4c0-1.7,0.6-3.1,2.1-3.9
						l0.9-0.5l-1.1-1c-1-0.9-1.4-1.7-1.4-2.9c0-2.7,2.3-3.6,4-3.6c2.4,0,4.2,1.5,4.3,3.8c0,0.2-0.2,0.4-0.4,0.4s-0.4-0.2-0.4-0.4
						c0-1.9-1.6-3-3.5-3c-1.4,0-3.2,0.5-3.2,2.8c0,1.3,0.5,1.8,1.4,2.5l8,6.9c0.1,0.1,0.1,0.4,0,0.5c-0.1,0.1-0.4,0.1-0.5,0
						L140.2,35.3z M139.4,34.6l-4.2-3.6l-1.1,0.7c-1.3,0.7-1.7,2-1.7,3.3c0,2.8,1.9,3.5,3.5,3.5c1.9,0,3.5-1.1,3.5-3.7V34.6z"/>
					<path id="XMLID_1115_" class="st1" d="M169.8,32c0.6-2-0.7-3.2-2.6-3.8c-1.7-0.5-3.4-0.2-4,1.7c-0.3,1.1,0.1,2.3,0.9,3.1
						l3.2,3.3c1.3,1.3,1.6,2.7,1.1,4.4c-0.7,2.3-2.9,3.2-5.5,2.5c-2.6-0.7-3.7-2.9-3.1-5.1c0.1-0.2,0.3-0.3,0.5-0.3
						c0.2,0.1,0.3,0.3,0.3,0.5c-0.6,2,0.6,3.5,2.5,4.1c2.2,0.6,3.9,0,4.4-1.9c0.4-1.3,0.1-2.7-0.9-3.7l-3.2-3.4
						c-1-1.1-1.3-2.6-1-3.8c0.6-2.1,2.6-2.9,5-2.2c2.5,0.7,3.7,2.6,3.1,4.8c-0.1,0.2-0.3,0.3-0.5,0.3
						C169.9,32.4,169.8,32.2,169.8,32L169.8,32z"/>
					<path id="XMLID_1113_" class="st1" d="M172.7,45.3l6.7,2.9c0.2,0.1,0.3,0.3,0.2,0.5c-0.1,0.2-0.3,0.3-0.5,0.2l-7.5-3.3
						l6.4-14.6l7.5,3.3c0.2,0.1,0.3,0.3,0.2,0.5c-0.1,0.2-0.3,0.3-0.5,0.2l-6.7-2.9l-2.5,5.8l6.2,2.7c0.2,0.1,0.3,0.3,0.2,0.5
						c-0.1,0.2-0.3,0.3-0.5,0.2l-6.2-2.7L172.7,45.3z"/>
					<path id="XMLID_1111_" class="st1" d="M184.8,51.1l6.3,3.8c0.2,0.1,0.2,0.4,0.1,0.5c-0.1,0.2-0.4,0.2-0.5,0.1l-7-4.2l8.3-13.6
						l7,4.2c0.2,0.1,0.2,0.4,0.1,0.5c-0.1,0.2-0.4,0.2-0.5,0.1l-6.3-3.8l-3.3,5.4l5.8,3.5c0.2,0.1,0.2,0.4,0.1,0.5
						c-0.1,0.2-0.4,0.2-0.5,0.1l-5.8-3.5L184.8,51.1z"/>
					<path id="XMLID_1109_" class="st1" d="M210.4,50.6c0.2-0.1,0.4,0.1,0.5,0.3s0,0.4-0.2,0.5l-7.6,2.3l-1.4,10
						c0,0.3-0.2,0.4-0.5,0.4c-0.2,0-0.4-0.2-0.3-0.5l1.4-9.6l-3.4,1l-3.4,4.2c-0.1,0.2-0.4,0.2-0.6,0c-0.2-0.1-0.2-0.4-0.1-0.5
						l10-12.4c0.1-0.2,0.4-0.2,0.6-0.1c0.2,0.1,0.2,0.4,0.1,0.6l-5.8,7.1L210.4,50.6z"/>
				</g>
				<g id="XMLID_1103_">
					<path id="XMLID_1107_" class="st0" d="M91.4,250.6c13.4,5,28,7.8,43.2,7.8c15.3,0,30-2.8,43.5-7.9c-13.8-2.8-28-4.2-43.2-4.2
						C119.5,246.3,105.2,247.8,91.4,250.6z"/>
					<path id="XMLID_1104_" class="st0" d="M51.2,135.2c0-15.6,4.3-30.3,11.8-42.8C55.5,104.9,51.2,119.5,51.2,135.2
						c0,32.1,18.2,60,44.8,73.9c12.6-2.1,25.6-3.2,38.8-3.2c13.1,0,26,1.1,38.5,3.2c26.5-13.9,44.7-41.8,44.7-73.8
						c0-14.5-3.7-28.1-10.2-39.9c6.5,11.9,10.2,25.5,10.2,39.9c0,32.1-18.1,59.9-44.7,73.8c16.7,2.8,32.9,7.3,48.2,13.5
						c22.4-22.3,36.3-53.2,36.3-87.3c0-68.1-55.2-123.2-123.2-123.2S11.4,67.1,11.4,135.2c0,34.2,13.9,65.1,36.4,87.5
						c15.3-6.2,31.5-10.8,48.2-13.6C69.4,195.1,51.2,167.3,51.2,135.2z M134.6,51.8c23.8,0,45.3,10,60.5,26
						C179.9,61.8,158.4,51.8,134.6,51.8c-22.8,0-43.5,9.2-58.6,24C91.1,61,111.8,51.8,134.6,51.8z"/>
				</g>
				<path id="XMLID_1102_" class="st0" d="M49.8,224.6c-4.1,1.6-8.1,3.3-12.1,5.2l10.3,13L44.9,263c13.9-6.1,27.7-10.8,42-14.1"/>
				<path id="XMLID_1101_" class="st0" d="M86.9,248.8c-14.3,3.3-28.1,8.1-42,14.1l-0.4,2.6l-0.1,0.3c15.5-6.8,30.9-12,47-15.3"/>
				<path id="XMLID_1100_" class="st0" d="M47.8,222.6c-4,1.6-7.9,3.3-11.7,5.1l1.6,2c4-1.8,8-3.5,12.1-5.2"/>
				<path id="XMLID_1099_" class="st0" d="M182.6,248.7c14.4,3.2,28.3,7.9,42.1,13.9l-3.6-19.7l10.5-13.4c-4-1.8-8-3.5-12-5.1"/>
				<path id="XMLID_1098_" class="st0" d="M178.1,250.5c16.2,3.3,31.7,8.4,47.1,15.1l-0.5-3c-13.8-6-27.7-10.7-42.1-13.9"/>
				<path id="XMLID_1097_" class="st0" d="M219.5,224.5c4.1,1.6,8.1,3.3,12,5.1l1.5-1.9l0.1-0.1c-3.8-1.8-7.7-3.4-11.6-5"/>
				<path id="XMLID_1096_" class="st0" d="M173.3,209c-12.5-2.1-25.4-3.2-38.5-3.2c-13.2,0-26.2,1.1-38.8,3.2"/>
				<path id="XMLID_1095_" class="st0" d="M100.2,211.1c11.3-1.7,22.9-2.6,34.6-2.6c11.6,0,23.1,0.9,34.3,2.5"/>
				<path id="XMLID_1094_" class="st0" d="M221.5,222.5c-15.3-6.1-31.5-10.7-48.2-13.5"/>
				<path id="XMLID_1093_" class="st0" d="M169.1,211.1c17.5,2.6,34.4,7.1,50.4,13.4"/>
				<path id="XMLID_1092_" class="st0" d="M91.4,250.6c13.8-2.8,28.1-4.3,43.5-4.3c15.2,0,29.5,1.5,43.2,4.2"/>
				<path id="XMLID_1091_" class="st0" d="M182.6,248.7c-15.1-3.4-30.9-5.2-47.7-5.2c-17,0-32.8,1.8-47.9,5.3"/>
				<path id="XMLID_1090_" class="st0" d="M49.8,224.6c16-6.3,32.9-10.8,50.4-13.4"/>
				<path id="XMLID_1089_" class="st0" d="M96,209.1c-16.7,2.8-32.9,7.4-48.2,13.6"/>
				<g id="XMLID_1086_">
					<circle id="XMLID_1088_" class="st0" cx="61.3" cy="239.9" r="4"/>
					<circle id="XMLID_1087_" class="st0" cx="208" cy="239.9" r="4"/>
				</g>
				<g id="XMLID_1066_">
					<path id="XMLID_1084_" class="st1" d="M92.9,233.9c0.2,0,0.4,0.1,0.5,0.3c0.3,1.2,0.1,3.9-3,4.6c-3,0.7-4.4-1.5-4.7-2.7
						l-1.8-7.4c-0.3-1.2-0.1-3.8,3-4.5c2.9-0.7,4.3,1.4,4.7,2.7c0,0.2-0.1,0.4-0.3,0.4s-0.4-0.1-0.4-0.3c-0.6-2.5-2.8-2.3-3.8-2.1
						c-1,0.2-3.1,1.2-2.4,3.7l1.8,7.4c0.6,2.5,2.9,2.4,3.9,2.2c1-0.2,3-1.2,2.4-3.7C92.6,234.1,92.7,233.9,92.9,233.9z"/>
					<path id="XMLID_1082_" class="st1" d="M96.4,222.1c0-0.2,0.1-0.4,0.3-0.4s0.4,0.1,0.4,0.3l1.2,6.5l6.6-1.2l-1.2-6.5
						c0-0.2,0.1-0.4,0.3-0.4c0.2,0,0.4,0.1,0.4,0.3l2.6,14.5c0,0.2-0.1,0.4-0.3,0.4s-0.4-0.1-0.4-0.3l-1.3-7.3l-6.6,1.2l1.3,7.3
						c0,0.2-0.1,0.4-0.3,0.4c-0.2,0-0.4-0.1-0.4-0.3L96.4,222.1z"/>
					<path id="XMLID_1079_" class="st1" d="M120.7,233.2c0.1,0.2,0,0.4-0.2,0.5c-0.2,0.1-0.4,0-0.5-0.2l-1.6-4.3l-5.9,0.7l-0.6,4.5
						c0,0.2-0.2,0.3-0.4,0.3c-0.2,0-0.3-0.2-0.3-0.4l1.7-14.8l2.7-0.3L120.7,233.2z M115.1,219.9l-1.6,0.2l-1,9l5.6-0.7L115.1,219.9
						z"/>
					<path id="XMLID_1077_" class="st1" d="M132.3,218.8l-0.5,0L129,228l-0.8,0l-3.6-9l-0.5,0l0.6,13.9c0,0.2-0.2,0.4-0.4,0.4
						s-0.4-0.2-0.4-0.4l-0.7-14.7l1.7-0.1l3.6,8.9l2.7-9.1l1.7-0.1l0.7,14.7c0,0.2-0.2,0.4-0.4,0.4s-0.4-0.2-0.4-0.4L132.3,218.8z"
						/>
					<path id="XMLID_1074_" class="st1" d="M138.4,217.9l4.2,0.2c3.1,0.1,3.7,2.6,3.6,3.8l0,1.1c-0.1,1.3-0.8,3.7-3.8,3.6l-3.5-0.1
						l-0.3,6.2c0,0.2-0.2,0.4-0.4,0.4c-0.2,0-0.4-0.2-0.4-0.4L138.4,217.9z M145.4,222c0.1-2.6-1.9-3.1-2.9-3.1l-3.4-0.1l-0.3,7.1
						l3.5,0.1c1,0,3-0.3,3.1-2.9L145.4,222z"/>
					<path id="XMLID_1072_" class="st1" d="M153.2,218.9l6.2,0.7c0.2,0,0.4,0.2,0.3,0.4c0,0.2-0.2,0.3-0.4,0.3l-2.8-0.3l-1.5,13.2
						l2.8,0.3c0.2,0,0.4,0.2,0.3,0.4c0,0.2-0.2,0.3-0.4,0.3l-6.2-0.7c-0.2,0-0.3-0.2-0.3-0.4c0-0.2,0.2-0.4,0.4-0.3l2.8,0.3
						l1.5-13.2l-2.8-0.3c-0.2,0-0.3-0.2-0.3-0.4C152.8,219,153,218.8,153.2,218.9z"/>
					<path id="XMLID_1069_" class="st1" d="M167.4,235.9c-3-0.5-3.4-3.1-3.2-4.4l1.3-7.5c0.2-1.2,1.5-3.5,4.6-2.9
						c3,0.5,3.5,3.2,3.3,4.3L172,233C171.8,234.2,170.5,236.5,167.4,235.9z M172.6,225.3c0.5-2.5-1.7-3.4-2.6-3.5s-3.3-0.2-3.7,2.4
						l-1.3,7.5c-0.5,2.6,1.7,3.4,2.7,3.5c1,0.2,3.2,0.1,3.7-2.4L172.6,225.3z"/>
					<path id="XMLID_1067_" class="st1" d="M187.1,224.5c0.2,0,0.3,0.3,0.3,0.5l-3.4,14.4l-1.8-0.4l-1.2-14.6l-0.5-0.1l-3.2,13.6
						c0,0.2-0.3,0.3-0.5,0.3c-0.2,0-0.3-0.3-0.3-0.5l3.4-14.4l1.7,0.4l1.3,14.8l0.5,0.1l3.3-13.7
						C186.7,224.6,186.9,224.4,187.1,224.5z"/>
				</g>
			</g>
			<g id="XMLID_1063_">
				<path id="XMLID_1064_" class="st1" d="M262.6,134.9c0,33.8-13,65.6-36.6,89.6c0.2,0.1,0.4,0.2,0.5,0.3
					c23.6-24.2,36.6-56,36.6-89.9c0-34.4-13.4-66.7-37.7-91c-24.3-24.3-56.6-37.7-91-37.7c-34.4,0-66.7,13.4-91,37.7
					c-24.3,24.3-37.7,56.6-37.7,91c0,34,13.1,65.9,36.8,90.1c0.2-0.1,0.3-0.2,0.5-0.3c-23.7-24.1-36.8-55.9-36.8-89.8
					c0-34.2,13.3-66.4,37.5-90.6C68,20.1,100.2,6.7,134.4,6.7c34.2,0,66.4,13.3,90.6,37.5C249.2,68.5,262.6,100.6,262.6,134.9z"/>
			</g>
		</g>
	</g>
</g>
</svg>
